<svg fill="none" height="35" viewBox="0 0 199 35" width="199" xmlns="http://www.w3.org/2000/svg" xmlns:xlink="http://www.w3.org/1999/xlink"><clipPath id="a"><path d="m45 5h154v25h-154z"/></clipPath><mask id="b" height="35" maskUnits="userSpaceOnUse" width="35" x="0" y="0"><circle cx="17.5" cy="17.5" fill="#fff" r="17.5"/></mask><circle cx="17.5" cy="17.5" fill="#65666a" r="17.5"/><g mask="url(#b)"><circle cx="17.5" cy="17.5" fill="#07b" r="17.5"/><g clip-rule="evenodd" fill-rule="evenodd"><path d="m12.2734 15.2729h10.9001l1.6446 4.0943v16.2694h-15.27269v-16.3021z" fill="#65666a"/><path d="m14.5403 5.09082h5.7436l10.2616 25.01238-5.659 3.624-7.4796-18.9265-7.278 18.9265-5.67431-3.624z" fill="#fff"/></g></g><g clip-path="url(#a)"><path d="m50.229 20.204 1.953-5.502h.042l1.89 5.502zm.315-9.198-5.67 14.994h3.318l1.176-3.339h5.607l1.134 3.339h3.423l-5.607-14.994zm10.2556 4.137v10.857h2.982v-4.893c0-.49.049-.945.147-1.365s.259-.784.483-1.092c.238-.322.546-.574.924-.756s.84-.273 1.386-.273c.182 0 .371.014.567.042.196.014.364.035.504.063v-2.772c-.238-.07-.455-.105-.651-.105-.378 0-.742.056-1.092.168s-.679.273-.987.483c-.308.196-.581.441-.819.735-.238.28-.427.588-.567.924h-.042v-2.016zm16.4108 5.439c0 .448-.049.882-.147 1.302s-.252.791-.462 1.113-.476.581-.798.777c-.308.182-.686.273-1.134.273-.434 0-.812-.091-1.134-.273-.322-.196-.588-.455-.798-.777s-.364-.693-.462-1.113-.147-.854-.147-1.302c0-.462.049-.903.147-1.323s.252-.791.462-1.113.476-.574.798-.756c.322-.196.7-.294 1.134-.294.448 0 .826.098 1.134.294.322.182.588.434.798.756s.364.693.462 1.113.147.861.147 1.323zm-7.959-9.576v14.994h2.835v-1.386h.042c.322.602.798 1.029 1.428 1.281s1.344.378 2.142.378c.546 0 1.085-.112 1.617-.336s1.008-.567 1.428-1.029c.434-.462.784-1.05 1.05-1.764.266-.728.399-1.589.399-2.583s-.133-1.848-.399-2.562c-.266-.728-.616-1.323-1.05-1.785-.42-.462-.896-.805-1.428-1.029s-1.071-.336-1.617-.336c-.672 0-1.323.133-1.953.399-.616.252-1.106.658-1.47 1.218h-.042v-5.46zm23.3125 14.994v-10.857h-2.982v5.691c0 1.106-.182 1.904-.546 2.394-.364.476-.952.714-1.764.714-.714 0-1.211-.217-1.491-.651-.28-.448-.42-1.12-.42-2.016v-6.132h-2.982v6.678c0 .672.056 1.288.168 1.848.126.546.336 1.015.63 1.407.294.378.693.672 1.197.882.518.21 1.176.315 1.974.315.63 0 1.246-.14 1.848-.42s1.092-.735 1.47-1.365h.063v1.512zm6.3329-10.857v-3.255h-2.982v3.255h-1.806v1.995h1.806v6.405c0 .546.091.987.273 1.323s.427.595.735.777c.322.182.686.301 1.092.357.42.07.861.105 1.323.105.294 0 .595-.007.9032-.021.308-.014.588-.042.84-.084v-2.31c-.14.028-.287.049-.441.063s-.315.021-.483.021c-.5042 0-.8402-.084-1.0082-.252s-.252-.504-.252-1.008v-5.376h2.1842v-1.995zm14.0772 10.857v-10.857h-2.982v5.691c0 1.106-.182 1.904-.546 2.394-.364.476-.952.714-1.764.714-.714 0-1.211-.217-1.491-.651-.28-.448-.42-1.12-.42-2.016v-6.132h-2.982v6.678c0 .672.056 1.288.168 1.848.126.546.336 1.015.63 1.407.294.378.693.672 1.197.882.518.21 1.176.315 1.974.315.63 0 1.246-.14 1.848-.42s1.092-.735 1.47-1.365h.063v1.512zm4.863-3.528h-2.835c.028.728.189 1.337.483 1.827.308.476.693.861 1.155 1.155.476.294 1.015.504 1.617.63s1.218.189 1.848.189c.616 0 1.218-.063 1.806-.189.602-.112 1.134-.315 1.596-.609s.833-.679 1.113-1.155c.294-.49.441-1.092.441-1.806 0-.504-.098-.924-.294-1.26-.196-.35-.455-.637-.777-.861-.322-.238-.693-.427-1.113-.567-.406-.14-.826-.259-1.26-.357-.42-.098-.833-.189-1.239-.273s-.77-.175-1.092-.273c-.308-.112-.56-.252-.756-.42s-.294-.385-.294-.651c0-.224.056-.399.168-.525.112-.14.245-.245.399-.315.168-.07.35-.112.546-.126.196-.028.378-.042.546-.042.532 0 .994.105 1.386.315.392.196.609.581.651 1.155h2.835c-.056-.672-.231-1.225-.525-1.659-.28-.448-.637-.805-1.071-1.071s-.931-.455-1.491-.567c-.546-.112-1.113-.168-1.701-.168s-1.162.056-1.722.168c-.56.098-1.064.28-1.512.546-.448.252-.812.602-1.092 1.05-.266.448-.399 1.022-.399 1.722 0 .476.098.882.294 1.218.196.322.455.595.777.819.322.21.686.385 1.092.525.42.126.847.238 1.281.336 1.064.224 1.89.448 2.478.672.602.224.903.56.903 1.008 0 .266-.063.49-.189.672-.126.168-.287.308-.483.42-.182.098-.392.175-.63.231-.224.042-.441.063-.651.063-.294 0-.581-.035-.861-.105-.266-.07-.504-.175-.714-.315-.21-.154-.385-.343-.525-.567-.126-.238-.189-.518-.189-.84zm19.57-6.426h3.192c-.098-.868-.336-1.638-.714-2.31s-.861-1.232-1.449-1.68c-.574-.462-1.232-.812-1.974-1.05-.728-.238-1.505-.357-2.331-.357-1.148 0-2.184.203-3.108.609-.91.406-1.68.966-2.31 1.68s-1.113 1.554-1.449 2.52c-.336.952-.504 1.988-.504 3.108 0 1.092.168 2.114.504 3.066.336.938.819 1.757 1.449 2.457s1.4 1.253 2.31 1.659c.924.392 1.96.588 3.108.588.924 0 1.771-.14 2.541-.42s1.442-.686 2.016-1.218 1.036-1.176 1.386-1.932.567-1.603.651-2.541h-3.192c-.126 1.008-.476 1.82-1.05 2.436-.56.616-1.344.924-2.352.924-.742 0-1.372-.14-1.89-.42-.518-.294-.938-.679-1.26-1.155s-.56-1.008-.714-1.596c-.14-.602-.21-1.218-.21-1.848 0-.658.07-1.295.21-1.911.154-.616.392-1.162.714-1.638.322-.49.742-.875 1.26-1.155.518-.294 1.148-.441 1.89-.441.406 0 .791.07 1.155.21.378.126.714.308 1.008.546s.539.518.735.84c.196.308.322.651.378 1.029zm5.418 2.436c.042-.7.217-1.281.525-1.743s.7-.833 1.176-1.113 1.008-.476 1.596-.588c.602-.126 1.204-.189 1.806-.189.546 0 1.099.042 1.659.126.56.07 1.071.217 1.533.441s.84.539 1.134.945c.294.392.441.917.441 1.575v5.649c0 .49.028.959.084 1.407s.154.784.294 1.008h-3.024c-.056-.168-.105-.336-.147-.504-.028-.182-.049-.364-.063-.546-.476.49-1.036.833-1.68 1.029s-1.302.294-1.974.294c-.518 0-1.001-.063-1.449-.189s-.84-.322-1.176-.588-.602-.602-.798-1.008c-.182-.406-.273-.889-.273-1.449 0-.616.105-1.12.315-1.512.224-.406.504-.728.84-.966.35-.238.742-.413 1.176-.525.448-.126.896-.224 1.344-.294s.889-.126 1.323-.168.819-.105 1.155-.189.602-.203.798-.357c.196-.168.287-.406.273-.714 0-.322-.056-.574-.168-.756-.098-.196-.238-.343-.42-.441-.168-.112-.371-.182-.609-.21-.224-.042-.469-.063-.735-.063-.588 0-1.05.126-1.386.378s-.532.672-.588 1.26zm6.888 2.205c-.126.112-.287.203-.483.273-.182.056-.385.105-.609.147-.21.042-.434.077-.672.105s-.476.063-.714.105c-.224.042-.448.098-.672.168-.21.07-.399.168-.567.294-.154.112-.28.259-.378.441s-.147.413-.147.693c0 .266.049.49.147.672s.231.329.399.441c.168.098.364.168.588.21s.455.063.693.063c.588 0 1.043-.098 1.365-.294s.56-.427.714-.693c.154-.28.245-.56.273-.84.042-.28.063-.504.063-.672zm11.067 3.36c-.476 0-.882-.098-1.218-.294s-.609-.448-.819-.756c-.196-.322-.343-.693-.441-1.113-.084-.42-.126-.847-.126-1.281 0-.448.042-.882.126-1.302s.224-.791.42-1.113c.21-.322.476-.581.798-.777.336-.21.749-.315 1.239-.315.476 0 .875.105 1.197.315.336.196.609.462.819.798.21.322.357.693.441 1.113.098.42.147.847.147 1.281s-.042.861-.126 1.281-.231.791-.441 1.113c-.196.308-.462.56-.798.756-.322.196-.728.294-1.218.294zm-5.481-8.904v14.658h2.982v-5.145h.042c.364.532.826.938 1.386 1.218.574.266 1.197.399 1.869.399.798 0 1.491-.154 2.079-.462.602-.308 1.099-.721 1.491-1.239.406-.518.707-1.113.903-1.785s.294-1.372.294-2.1c0-.77-.098-1.505-.294-2.205-.196-.714-.497-1.337-.903-1.869s-.917-.959-1.533-1.281-1.351-.483-2.205-.483c-.672 0-1.288.133-1.848.399s-1.022.693-1.386 1.281h-.042v-1.386zm16.194-1.68v-2.457h-2.982v2.457zm-2.982 1.68v10.857h2.982v-10.857zm9.4 0v-3.255h-2.982v3.255h-1.806v1.995h1.806v6.405c0 .546.091.987.273 1.323s.427.595.735.777c.322.182.686.301 1.092.357.42.07.861.105 1.323.105.294 0 .595-.007.903-.021s.588-.042.84-.084v-2.31c-.14.028-.287.049-.441.063s-.315.021-.483.021c-.504 0-.84-.084-1.008-.252s-.252-.504-.252-1.008v-5.376h2.184v-1.995zm3.766 3.339c.042-.7.217-1.281.525-1.743s.7-.833 1.176-1.113 1.008-.476 1.596-.588c.602-.126 1.204-.189 1.806-.189.546 0 1.099.042 1.659.126.56.07 1.071.217 1.533.441s.84.539 1.134.945c.294.392.441.917.441 1.575v5.649c0 .49.028.959.084 1.407s.154.784.294 1.008h-3.024c-.056-.168-.105-.336-.147-.504-.028-.182-.049-.364-.063-.546-.476.49-1.036.833-1.68 1.029s-1.302.294-1.974.294c-.518 0-1.001-.063-1.449-.189s-.84-.322-1.176-.588-.602-.602-.798-1.008c-.182-.406-.273-.889-.273-1.449 0-.616.105-1.12.315-1.512.224-.406.504-.728.84-.966.35-.238.742-.413 1.176-.525.448-.126.896-.224 1.344-.294s.889-.126 1.323-.168.819-.105 1.155-.189.602-.203.798-.357c.196-.168.287-.406.273-.714 0-.322-.056-.574-.168-.756-.098-.196-.238-.343-.42-.441-.168-.112-.371-.182-.609-.21-.224-.042-.469-.063-.735-.063-.588 0-1.05.126-1.386.378s-.532.672-.588 1.26zm6.888 2.205c-.126.112-.287.203-.483.273-.182.056-.385.105-.609.147-.21.042-.434.077-.672.105s-.476.063-.714.105c-.224.042-.448.098-.672.168-.21.07-.399.168-.567.294-.154.112-.28.259-.378.441s-.147.413-.147.693c0 .266.049.49.147.672s.231.329.399.441c.168.098.364.168.588.21s.455.063.693.063c.588 0 1.043-.098 1.365-.294s.56-.427.714-.693c.154-.28.245-.56.273-.84.042-.28.063-.504.063-.672zm5.67-9.681v14.994h2.982v-14.994z" fill="#65666a"/></g></svg>