<?xml version="1.0" encoding="UTF-8"?>
<svg width="160px" height="160px" viewBox="0 0 160 160" version="1.1" xmlns="http://www.w3.org/2000/svg" xmlns:xlink="http://www.w3.org/1999/xlink">
    <title>Group 42</title>
    <defs>
        <circle id="path-1" cx="60" cy="60" r="60"></circle>
        <filter x="-25.0%" y="-21.7%" width="156.7%" height="156.7%" filterUnits="objectBoundingBox" id="filter-2">
            <feOffset dx="4" dy="8" in="SourceAlpha" result="shadowOffsetOuter1"></feOffset>
            <feGaussianBlur stdDeviation="10" in="shadowOffsetOuter1" result="shadowBlurOuter1"></feGaussianBlur>
            <feColorMatrix values="0 0 0 0 0.268393806   0 0 0 0 0.341428607   0 0 0 0 0.473901721  0 0 0 0.15 0" type="matrix" in="shadowBlurOuter1"></feColorMatrix>
        </filter>
    </defs>
    <g id="Desktop_Final" stroke="none" stroke-width="1" fill="none" fill-rule="evenodd">
        <g id="01_Homepage_Jan2021" transform="translate(-644.000000, -2652.000000)">
            <g id="Group-39" transform="translate(0.000000, 2373.000000)">
                <g id="Group-24" transform="translate(630.000000, 291.000000)">
                    <g id="Group-43">
                        <g id="Group-42" transform="translate(30.000000, 0.000000)">
                            <g id="Oval-Copy-2">
                                <use fill="black" fill-opacity="1" filter="url(#filter-2)" xlink:href="#path-1"></use>
                                <use fill="#01446F" fill-rule="evenodd" xlink:href="#path-1"></use>
                            </g>
                            <g id="arrows-copy" transform="translate(26.666667, 26.666667)" fill="#FFFFFF" fill-rule="nonzero">
                                <path d="M52.332508,22.8336873 C52.3046405,22.6481175 52.2874134,22.4648038 52.2818398,22.2888226 C52.2504257,21.3350272 51.5491785,20.5882353 50.6847798,20.5882353 L15.3016923,20.5882353 C14.4372936,20.5882353 13.7360464,21.3350272 13.7046323,22.2888226 C13.6990587,22.4642397 13.6818316,22.6475533 13.6539641,22.8331233 C13.4340644,24.3041455 12.3360856,25.4277176 10.9837527,25.5659079 C10.8955902,25.5749325 10.8094542,25.581137 10.7278786,25.5833932 C9.85841314,25.6115952 9.17692658,26.3927937 9.17692658,27.3618183 L9.17692658,32.5357776 C9.17692658,33.1370466 9.61469938,33.6238151 10.1543151,33.6238151 C10.6944376,33.6238151 11.1322104,33.1364826 11.1322104,32.5357776 L11.1322104,27.7363423 C11.1423441,27.7352143 11.1524777,27.7340862 11.1626113,27.7335222 C13.3991033,27.5045209 15.2165698,25.6364131 15.5823939,23.1912902 C15.6036744,23.0485874 15.6209015,22.9058847 15.6335687,22.7643101 L50.3523968,22.7643101 C50.3650639,22.9058847 50.382291,23.0485874 50.4040784,23.1918542 C50.7699023,25.6375413 52.5883821,27.5050851 54.8263943,27.7335222 C54.8355145,27.7340862 54.8451415,27.7352143 54.8542617,27.7363423 L54.8542617,38.9303243 C54.8446348,38.9314523 54.8355145,38.9325804 54.8258875,38.9331445 C52.5883821,39.1615816 50.7699023,41.0291254 50.4040784,43.4753765 C50.3827977,43.6180791 50.3655706,43.7607818 50.3523968,43.9023564 L15.6340753,43.9023564 C15.6214083,43.7613459 15.6041811,43.6186433 15.5829005,43.4759405 C15.2170764,41.0302534 13.3991033,39.1621456 11.1626113,38.9337085 C11.1524777,38.9325804 11.1423441,38.9314523 11.1322104,38.9303243 L11.1322104,37.5845195 C11.1322104,36.9838146 10.6944376,36.4964821 10.1548219,36.4964821 C9.61469938,36.4964821 9.17743323,36.9838146 9.17743323,37.5845195 L9.17743323,39.3048484 C9.17743323,40.2738728 9.85841314,41.0550713 10.7268653,41.0832735 C10.8109743,41.0860936 10.8976169,41.0917341 10.9837527,41.1007588 C12.3360856,41.2395131 13.4340644,42.3630852 13.6544708,43.8335433 C13.6823383,44.0191132 13.6990587,44.2024269 13.7046323,44.377844 C13.7360464,45.3316395 14.4372936,46.0784314 15.3021989,46.0784314 L50.6847798,46.0784314 C51.5491785,46.0784314 52.2509323,45.3316395 52.2818398,44.377844 C52.28792,44.2018629 52.3046405,44.0185492 52.332508,43.8329792 C52.5529145,42.3619571 53.6513999,41.238385 55.0042394,41.1007588 C55.092402,41.0917341 55.1780312,41.0860936 55.2591002,41.0832735 C56.1285656,41.0550713 56.8095455,40.2738728 56.8095455,39.3048484 L56.8095455,27.3618183 C56.8095455,26.3927937 56.1285656,25.6121593 55.2591002,25.5833932 C55.1780312,25.581137 55.092402,25.5749325 55.0042394,25.5659079 C53.6508933,25.4282816 52.5524078,24.3047095 52.332508,22.8336873 L52.332508,22.8336873 Z" id="Path"></path>
                                <path d="M17.7716803,34.3137255 C18.3343633,34.3137255 18.7908497,33.7648279 18.7908497,33.0882354 C18.7908497,32.4110075 18.3343633,31.8627451 17.7716803,31.8627451 L15.8770505,31.8627451 C15.3138392,31.8627451 14.8578811,32.4116427 14.8578811,33.0882354 C14.8578811,33.7648279 15.3138392,34.3137255 15.8770505,34.3137255 L17.7716803,34.3137255 Z" id="Path"></path>
                                <path d="M50.546555,34.3137255 C51.1091624,34.3137255 51.5655875,33.7648279 51.5655875,33.0882354 C51.5655875,32.4110075 51.1091624,31.8627451 50.546555,31.8627451 L48.6521797,31.8627451 C48.089044,31.8627451 47.6326189,32.4116427 47.6326189,33.0882354 C47.6326189,33.7648279 48.089044,34.3137255 48.6521797,34.3137255 L50.546555,34.3137255 Z" id="Path"></path>
                                <path d="M40.6406749,33.0882354 C40.6406749,28.3581939 37.2099398,24.5098039 32.9932361,24.5098039 C28.7765323,24.5098039 25.3457972,28.3581939 25.3457972,33.0882354 C25.3457972,37.8182769 28.7765323,41.6666667 32.9932361,41.6666667 C37.2099398,41.6666667 40.6406749,37.8182769 40.6406749,33.0882354 Z M27.2908047,33.0882354 C27.2908047,29.5616286 29.8488577,26.6921605 32.9932361,26.6921605 C36.1376144,26.6921605 38.6956674,29.5616286 38.6956674,33.0882354 C38.6956674,36.6154076 36.1376144,39.4848756 32.9932361,39.4848756 C29.8488577,39.4848756 27.2908047,36.6154076 27.2908047,33.0882354 Z" id="Shape"></path>
                                <path d="M66.4112186,15.1461849 C66.2485453,13.7840008 65.9454965,12.5000118 65.5111943,11.3287826 C64.096798,7.51534684 60.7510996,5.0516293 56.9878223,5.0516293 L54.5122488,5.0516293 L54.5122488,1.42404879 C54.5122488,0.889147831 54.2482214,0.404677118 53.823041,0.159325338 C53.3978606,-0.0860264421 52.8910901,-0.0457955075 52.5013837,0.264719032 L48.5115801,3.4389935 C48.0717034,3.78860578 47.9688289,4.47139775 48.2815063,4.96323465 C48.5946904,5.45507155 49.2048421,5.57009795 49.6452255,5.22048567 L52.5566216,2.90352594 L52.5566216,5.81488314 C52.5566216,6.59966893 53.127752,7.23826365 53.829629,7.23826365 L56.9878223,7.23826365 C59.9580038,7.23826365 62.5947304,9.17274649 63.7050645,12.1662653 C63.8201014,12.4756465 63.9239893,12.7952272 64.0172351,13.1244406 C62.0839058,11.5605352 59.6098526,11.5526024 57.3663799,11.5458029 C57.0384994,11.5446697 56.7126461,11.5435363 56.3918603,11.5378699 C55.9058675,11.5293706 55.4284897,11.561102 54.9668218,11.5928334 C54.5715409,11.6200317 54.1985579,11.6455302 53.8301358,11.6455302 C53.127752,11.6455302 52.5566216,12.2841249 52.5566216,13.0689107 L52.5566216,16.5922307 L43.9541936,9.74787838 L45.9903971,8.1278764 C46.4302739,7.77826426 46.5331483,7.09547215 46.220471,6.6036354 C45.9072868,6.11179835 45.2971352,5.99677209 44.8567517,6.34695082 L42.0391081,8.58854848 C41.7041329,8.85486577 41.5039585,9.2883395 41.5039585,9.74787838 C41.5039585,10.2079839 41.7041329,10.6414576 42.0391081,10.9077747 L47.2492149,15.0526906 L6.50233811,15.0526906 C5.13456467,15.0526906 4.02220354,16.2970152 4.02220354,17.8257895 L4.02220354,48.8409789 C4.02220354,50.3703197 5.13456467,51.6140776 6.50233811,51.6140776 L11.9110989,51.6140776 L11.9110989,52.8561358 C11.7175126,52.8663352 11.5259534,52.8793677 11.3374348,52.8924003 C10.8940106,52.9224319 10.4754183,52.9507634 10.0644275,52.9433972 C9.73451988,52.9371643 9.39954466,52.9360311 9.06254235,52.9354643 C6.41061256,52.9269649 3.9056464,52.919032 2.48060794,50.496112 C2.13093627,49.9017147 1.47112123,49.6597626 0.876172676,49.9085143 C0.28375807,50.1561326 -0.0714879727,50.8190925 0.0121291166,51.5211499 C0.174802394,52.8833341 0.477851179,54.1673232 0.912153409,55.3385523 C2.32654973,59.1514215 5.67224807,61.615139 9.43552539,61.615139 L11.9110989,61.615139 L11.9110989,65.2427194 C11.9110989,65.7776204 12.1751263,66.2626577 12.6003067,66.5074429 C12.7852779,66.6139697 12.9854523,66.6666667 13.184613,66.6666667 C13.4435727,66.6666667 13.7015188,66.5777053 13.921964,66.4026159 L24.3842396,58.0787863 C24.7192148,57.8119026 24.9188825,57.3784288 24.9188825,56.91889 C24.9188825,56.4593511 24.7192148,56.0258773 24.3842396,55.7595601 L19.1736261,51.6140776 L59.9210096,51.6140776 C61.2882763,51.6140776 62.4011442,50.369753 62.4011442,48.8409789 L62.4011442,17.8257895 C62.4011442,16.2964487 61.2882763,15.0526906 59.9210096,15.0526906 L54.5122488,15.0526906 L54.5122488,13.8111991 C54.7063419,13.8009997 54.8979011,13.7879671 55.0864197,13.7749347 C55.5298438,13.7449031 55.9479294,13.7160049 56.359427,13.7239377 C56.6893346,13.7296041 57.0238031,13.7307373 57.3613122,13.7318705 C60.0127352,13.74037 62.5177013,13.7483029 63.9432465,16.1712229 C64.2924114,16.7656203 64.9522265,17.0070057 65.547175,16.7588207 C66.1395896,16.5112024 66.4953426,15.8482424 66.4112186,15.1461849 L66.4112186,15.1461849 Z M22.4691541,56.91889 L13.8667261,63.7632423 L13.8667261,60.8524518 C13.8667261,60.067666 13.2955958,59.4290713 12.5937187,59.4290713 L9.43552539,59.4290713 C6.4653439,59.4290713 3.8286173,57.4945884 2.71828324,54.5010696 C2.60324632,54.1911217 2.49935841,53.871541 2.40611265,53.5428942 C4.33944189,55.1067996 6.81349509,55.1141658 9.05696784,55.1209655 C9.38484835,55.1220987 9.71070164,55.1232319 10.0314874,55.1294649 C10.5184938,55.1379644 10.9953647,55.1056664 11.4565259,55.073935 C11.8518068,55.0473032 12.2252966,55.0218048 12.5937187,55.0218048 C13.2955958,55.0218048 13.8667261,54.3832101 13.8667261,53.5984243 L13.8667261,50.0745375 L22.4691541,56.91889 Z M59.9210096,17.2387583 C60.2098688,17.2387583 60.445517,17.5022423 60.445517,17.8257895 L60.445517,48.8409789 C60.445517,49.164526 60.2103756,49.4274434 59.9210096,49.4274434 L16.42541,49.4274434 L13.921964,47.4357306 C13.5317508,47.1252161 13.0254872,47.0849851 12.6003067,47.3303369 C12.1751263,47.5756887 11.9110989,48.0601594 11.9110989,48.5950604 L11.9110989,49.4274434 L6.50233811,49.4274434 C6.21297216,49.4274434 5.97732394,49.164526 5.97732394,48.8409789 L5.97732394,17.8257895 C5.97732394,17.5022423 6.21297216,17.2387583 6.50233811,17.2387583 L49.997431,17.2387583 L52.5013837,19.2316043 C52.7218289,19.4066937 52.979775,19.4956551 53.2387347,19.4956551 C53.4378955,19.4956551 53.6380698,19.4429582 53.823041,19.3364313 C54.2482214,19.0910795 54.5122488,18.6066088 54.5122488,18.0717078 L54.5122488,17.2393249 L59.9210096,17.2393249 L59.9210096,17.2387583 Z" id="Shape"></path>
                            </g>
                        </g>
                    </g>
                </g>
            </g>
        </g>
    </g>
</svg>