<svg width="80" height="80" viewBox="0 0 80 80" fill="none" xmlns="http://www.w3.org/2000/svg">
<circle cx="40" cy="40" r="40" fill="#01446F"/>
<path fill-rule="evenodd" clip-rule="evenodd" d="M57.7773 35.5556H59.9699C61.2129 35.5572 62.2202 36.5645 62.2218 37.8075V59.9704C62.2202 61.2134 61.2129 62.2206 59.9699 62.2223H43.7329C42.4899 62.2206 41.4827 61.2134 41.481 59.9704V56.2964H19.2588C18.4406 56.2964 17.7773 55.6331 17.7773 54.8149V51.1112C17.7772 50.9963 17.8039 50.8829 17.8551 50.7801L22.2218 42.0475V20.0001C22.2218 18.7728 23.2167 17.7778 24.444 17.7778H55.5551C56.7824 17.7778 57.7773 18.7728 57.7773 20.0001V35.5556ZM24.444 19.2593C24.0349 19.2593 23.7033 19.591 23.7033 20.0001V41.4815H41.481V37.8075C41.4827 36.5645 42.4899 35.5572 43.7329 35.5556H56.2959V20.0001C56.2959 19.591 55.9642 19.2593 55.5551 19.2593H24.444ZM37.7773 51.8519H41.481V52.5926H37.7773V51.8519ZM23.4203 42.963L19.7166 50.3704H41.481V42.963H23.4203ZM19.2588 54.8149V51.8519H36.2959V52.5926C36.2959 53.4108 36.9591 54.0741 37.7773 54.0741H41.481V54.8149H19.2588ZM59.9699 60.7408C60.3954 60.7408 60.7403 60.3959 60.7403 59.9704V37.8075C60.7403 37.382 60.3954 37.0371 59.9699 37.0371H43.7329C43.3074 37.0371 42.9625 37.382 42.9625 37.8075V59.9704C42.9625 60.3959 43.3074 60.7408 43.7329 60.7408H59.9699Z" fill="white"/>
<path fill-rule="evenodd" clip-rule="evenodd" d="M44.5231 37.9036H59.5158C59.9298 37.9036 60.2654 38.2321 60.2654 38.6373V43.0398C60.2654 43.4451 59.9298 43.7736 59.5158 43.7736H44.5231C44.1091 43.7736 43.7734 43.4451 43.7734 43.0398V38.6373C43.7734 38.2321 44.1091 37.9036 44.5231 37.9036ZM45.2727 42.3061H58.7661V39.3711H45.2727V42.3061Z" fill="white"/>
<path fill-rule="evenodd" clip-rule="evenodd" d="M44.5188 45.1711H47.5004C47.9121 45.1711 48.2458 45.5049 48.2458 45.9165V48.8981C48.2458 49.3098 47.9121 49.6435 47.5004 49.6435H44.5188C44.1072 49.6435 43.7734 49.3098 43.7734 48.8981V45.9165C43.7734 45.5049 44.1072 45.1711 44.5188 45.1711ZM45.2642 48.1527H46.755V46.6619H45.2642V48.1527Z" fill="white"/>
<path fill-rule="evenodd" clip-rule="evenodd" d="M50.388 45.1711H53.3696C53.7812 45.1711 54.115 45.5049 54.115 45.9165V48.8981C54.115 49.3098 53.7812 49.6435 53.3696 49.6435H50.388C49.9763 49.6435 49.6426 49.3098 49.6426 48.8981V45.9165C49.6426 45.5049 49.9763 45.1711 50.388 45.1711ZM51.1334 48.1527H52.6242V46.6619H51.1334V48.1527Z" fill="white"/>
<path fill-rule="evenodd" clip-rule="evenodd" d="M56.2591 45.1711H59.2407C59.6523 45.1711 59.9861 45.5049 59.9861 45.9165V48.8981C59.9861 49.3098 59.6523 49.6435 59.2407 49.6435H56.2591C55.8474 49.6435 55.5137 49.3098 55.5137 48.8981V45.9165C55.5137 45.5049 55.8474 45.1711 56.2591 45.1711ZM57.0045 48.1527H58.4953V46.6619H57.0045V48.1527Z" fill="white"/>
<path fill-rule="evenodd" clip-rule="evenodd" d="M44.5188 50.2026H47.5004C47.9121 50.2026 48.2458 50.5364 48.2458 50.948V53.9296C48.2458 54.3413 47.9121 54.675 47.5004 54.675H44.5188C44.1072 54.675 43.7734 54.3413 43.7734 53.9296V50.948C43.7734 50.5364 44.1072 50.2026 44.5188 50.2026ZM45.2642 53.1842H46.755V51.6934H45.2642V53.1842Z" fill="white"/>
<path fill-rule="evenodd" clip-rule="evenodd" d="M50.388 50.2026H53.3696C53.7812 50.2026 54.115 50.5364 54.115 50.948V53.9296C54.115 54.3413 53.7812 54.675 53.3696 54.675H50.388C49.9763 54.675 49.6426 54.3413 49.6426 53.9296V50.948C49.6426 50.5364 49.9763 50.2026 50.388 50.2026ZM51.1334 53.1842H52.6242V51.6934H51.1334V53.1842Z" fill="white"/>
<path fill-rule="evenodd" clip-rule="evenodd" d="M56.2591 50.2026H59.2407C59.6523 50.2026 59.9861 50.5364 59.9861 50.948V53.9296C59.9861 54.3413 59.6523 54.675 59.2407 54.675H56.2591C55.8474 54.675 55.5137 54.3413 55.5137 53.9296V50.948C55.5137 50.5364 55.8474 50.2026 56.2591 50.2026ZM57.0045 53.1842H58.4953V51.6934H57.0045V53.1842Z" fill="white"/>
<path fill-rule="evenodd" clip-rule="evenodd" d="M44.5188 55.5137H47.5004C47.9121 55.5137 48.2458 55.8474 48.2458 56.2591V59.2407C48.2458 59.6523 47.9121 59.9861 47.5004 59.9861H44.5188C44.1072 59.9861 43.7734 59.6523 43.7734 59.2407V56.2591C43.7734 55.8474 44.1072 55.5137 44.5188 55.5137ZM45.2642 58.4953H46.755V57.0045H45.2642V58.4953Z" fill="white"/>
<path fill-rule="evenodd" clip-rule="evenodd" d="M50.388 55.5137H53.3696C53.7812 55.5137 54.115 55.8474 54.115 56.2591V59.2407C54.115 59.6523 53.7812 59.9861 53.3696 59.9861H50.388C49.9763 59.9861 49.6426 59.6523 49.6426 59.2407V56.2591C49.6426 55.8474 49.9763 55.5137 50.388 55.5137ZM51.1334 58.4953H52.6242V57.0045H51.1334V58.4953Z" fill="white"/>
<path fill-rule="evenodd" clip-rule="evenodd" d="M56.2591 55.5137H59.2407C59.6523 55.5137 59.9861 55.8474 59.9861 56.2591V59.2407C59.9861 59.6523 59.6523 59.9861 59.2407 59.9861H56.2591C55.8474 59.9861 55.5137 59.6523 55.5137 59.2407V56.2591C55.5137 55.8474 55.8474 55.5137 56.2591 55.5137ZM57.0045 58.4953H58.4953V57.0045H57.0045V58.4953Z" fill="white"/>
<path d="M32.448 26.8069L34.1477 28.5C34.4371 28.7883 34.9064 28.7883 35.1958 28.5L38.378 25.3302V26.5012H39.8605V23.5477C39.8605 23.1399 39.5286 22.8093 39.1192 22.8093H36.1542V24.2861H37.3298L34.6717 26.9339L32.9721 25.2408C32.6826 24.9526 32.2134 24.9526 31.924 25.2408L28.959 28.1943L30.0071 29.2384L32.448 26.8069Z" fill="white"/>
<path d="M28.1938 31.9404V22.2502H26.7227V32.6858C26.7227 33.0975 27.052 33.4312 27.4582 33.4312H40.6989V31.9404H28.1938Z" fill="white"/>
<path d="M42.9355 22.2502H45.7308V23.9274H42.9355V22.2502Z" fill="white"/>
<path d="M47.4062 22.2502H53.2763V23.9274H47.4062V22.2502Z" fill="white"/>
<path d="M42.9355 25.0454H53.278V26.7226H42.9355V25.0454Z" fill="white"/>
<path d="M26.7227 34.5493H32.5927V36.2265H26.7227V34.5493Z" fill="white"/>
<path d="M26.7227 37.624H32.5927V39.3012H26.7227V37.624Z" fill="white"/>
</svg>
