<?xml version="1.0" encoding="UTF-8"?>
<svg width="160px" height="160px" viewBox="0 0 160 160" version="1.1" xmlns="http://www.w3.org/2000/svg" xmlns:xlink="http://www.w3.org/1999/xlink">
    <title>Group 41</title>
    <defs>
        <circle id="path-1" cx="60" cy="60" r="60"></circle>
        <filter x="-25.0%" y="-21.7%" width="156.7%" height="156.7%" filterUnits="objectBoundingBox" id="filter-2">
            <feOffset dx="4" dy="8" in="SourceAlpha" result="shadowOffsetOuter1"></feOffset>
            <feGaussianBlur stdDeviation="10" in="shadowOffsetOuter1" result="shadowBlurOuter1"></feGaussianBlur>
            <feColorMatrix values="0 0 0 0 0.268393806   0 0 0 0 0.341428607   0 0 0 0 0.473901721  0 0 0 0.15 0" type="matrix" in="shadowBlurOuter1"></feColorMatrix>
        </filter>
    </defs>
    <g id="Desktop_Final" stroke="none" stroke-width="1" fill="none" fill-rule="evenodd">
        <g id="01_Homepage_Jan2021" transform="translate(-399.000000, -2652.000000)">
            <g id="Group-39" transform="translate(0.000000, 2373.000000)">
                <g id="Group-23" transform="translate(385.000000, 291.000000)">
                    <g id="Group-41" transform="translate(30.000000, 0.000000)">
                        <g id="Oval">
                            <use fill="black" fill-opacity="1" filter="url(#filter-2)" xlink:href="#path-1"></use>
                            <use fill="#01446F" fill-rule="evenodd" xlink:href="#path-1"></use>
                        </g>
                        <g id="laptop-copy" transform="translate(26.666667, 26.666667)" fill="#FFFFFF" fill-rule="nonzero">
                            <path d="M63.2888894,26.6666667 L60,26.6666667 L60,3.33333333 C60,1.49238417 58.5076163,0 56.6666672,0 L10,0 C8.15905132,0 6.66666715,1.49238417 6.66666715,3.33333333 L6.66666715,36.4044444 L0.11666715,49.5033333 C0.0397813809,49.6575988 0,49.8276364 0,50 L0,55.5555556 C0,56.782855 0.994923262,57.7777778 2.22222271,57.7777778 L35.555556,57.7777778 L35.555556,63.2888889 C35.5580045,65.1533689 37.0688538,66.6642182 38.9333338,66.6666667 L63.2888894,66.6666667 C65.1533694,66.6642182 66.6642187,65.1533689 66.6666672,63.2888889 L66.6666672,30.0444444 C66.6642187,28.1799644 65.1533694,26.6691151 63.2888894,26.6666667 Z M8.88888937,3.33333333 C8.88888937,2.71968361 9.38635076,2.22222222 10.0000005,2.22222222 L56.6666672,2.22222222 C57.2803169,2.22222222 57.7777783,2.71968361 57.7777783,3.33333333 L57.7777783,26.6666667 L38.9333338,26.6666667 C37.0688538,26.6691151 35.5580045,28.1799644 35.555556,30.0444444 L35.555556,35.5555556 L8.88888937,35.5555556 L8.88888937,3.33333333 Z M30.0000005,51.1111111 L35.555556,51.1111111 L35.555556,52.2222222 L30.0000005,52.2222222 L30.0000005,51.1111111 Z M2.90888937,48.8888889 L8.46444493,37.7777778 L35.555556,37.7777778 L35.555556,48.8888889 L2.90888937,48.8888889 Z M2.22222271,55.5555556 L2.22222271,51.1111111 L27.7777783,51.1111111 L27.7777783,52.2222222 C27.7777783,53.4495217 28.772701,54.4444444 30.0000005,54.4444444 L35.555556,54.4444444 L35.555556,55.5555556 L2.22222271,55.5555556 Z M64.4444449,63.2888889 C64.4444449,63.9270846 63.9270851,64.4444444 63.2888894,64.4444444 L38.9333338,64.4444444 C38.2951381,64.4444444 37.7777783,63.9270846 37.7777783,63.2888889 L37.7777783,30.0444444 C37.7777783,29.4062487 38.2951381,28.8888889 38.9333338,28.8888889 L63.2888894,28.8888889 C63.9270851,28.8888889 64.4444449,29.4062487 64.4444449,30.0444444 L64.4444449,63.2888889 Z" id="Shape"></path>
                            <path d="M62.6072041,30.1886792 L40.1181628,30.1886792 C39.497145,30.1886792 38.9937107,30.6814476 38.9937107,31.2893082 L38.9937107,37.8930818 C38.9937107,38.5009423 39.497145,38.9937107 40.1181628,38.9937107 L62.6072041,38.9937107 C63.2282218,38.9937107 63.7316562,38.5009423 63.7316562,37.8930818 L63.7316562,31.2893082 C63.7316562,30.6814476 63.2282218,30.1886792 62.6072041,30.1886792 Z M61.482752,36.7924528 L41.2426148,36.7924528 L41.2426148,32.3899371 L61.482752,32.3899371 L61.482752,36.7924528 Z" id="Shape"></path>
                            <path d="M44.5842068,41.0901468 L40.1118099,41.0901468 C39.4943008,41.0901468 38.9937107,41.5907368 38.9937107,42.208246 L38.9937107,46.6806429 C38.9937107,47.2981521 39.4943008,47.7987421 40.1118099,47.7987421 L44.5842068,47.7987421 C45.201716,47.7987421 45.7023061,47.2981521 45.7023061,46.6806429 L45.7023061,42.208246 C45.7023061,41.5907368 45.201716,41.0901468 44.5842068,41.0901468 Z M43.4661076,45.5625437 L41.2299092,45.5625437 L41.2299092,43.3263452 L43.4661076,43.3263452 L43.4661076,45.5625437 Z" id="Shape"></path>
                            <path d="M53.3892383,41.0901468 L48.9168414,41.0901468 C48.2993322,41.0901468 47.7987421,41.5907368 47.7987421,42.208246 L47.7987421,46.6806429 C47.7987421,47.2981521 48.2993322,47.7987421 48.9168414,47.7987421 L53.3892383,47.7987421 C54.0067474,47.7987421 54.5073375,47.2981521 54.5073375,46.6806429 L54.5073375,42.208246 C54.5073375,41.5907368 54.0067474,41.0901468 53.3892383,41.0901468 Z M52.2711391,45.5625437 L50.0349406,45.5625437 L50.0349406,43.3263452 L52.2711391,43.3263452 L52.2711391,45.5625437 Z" id="Shape"></path>
                            <path d="M62.1942697,41.0901468 L57.7218728,41.0901468 C57.1043637,41.0901468 56.6037736,41.5907368 56.6037736,42.208246 L56.6037736,46.6806429 C56.6037736,47.2981521 57.1043637,47.7987421 57.7218728,47.7987421 L62.1942697,47.7987421 C62.8117789,47.7987421 63.312369,47.2981521 63.312369,46.6806429 L63.312369,42.208246 C63.312369,41.5907368 62.8117789,41.0901468 62.1942697,41.0901468 Z M61.0761705,45.5625437 L58.839972,45.5625437 L58.839972,43.3263452 L61.0761705,43.3263452 L61.0761705,45.5625437 Z" id="Shape"></path>
                            <path d="M44.5842068,48.6373166 L40.1118099,48.6373166 C39.4943008,48.6373166 38.9937107,49.1379066 38.9937107,49.7554158 L38.9937107,54.2278127 C38.9937107,54.8453219 39.4943008,55.3459119 40.1118099,55.3459119 L44.5842068,55.3459119 C45.201716,55.3459119 45.7023061,54.8453219 45.7023061,54.2278127 L45.7023061,49.7554158 C45.7023061,49.1379066 45.201716,48.6373166 44.5842068,48.6373166 Z M43.4661076,53.1097135 L41.2299092,53.1097135 L41.2299092,50.873515 L43.4661076,50.873515 L43.4661076,53.1097135 Z" id="Shape"></path>
                            <path d="M53.3892383,48.6373166 L48.9168414,48.6373166 C48.2993322,48.6373166 47.7987421,49.1379066 47.7987421,49.7554158 L47.7987421,54.2278127 C47.7987421,54.8453219 48.2993322,55.3459119 48.9168414,55.3459119 L53.3892383,55.3459119 C54.0067474,55.3459119 54.5073375,54.8453219 54.5073375,54.2278127 L54.5073375,49.7554158 C54.5073375,49.1379066 54.0067474,48.6373166 53.3892383,48.6373166 Z M52.2711391,53.1097135 L50.0349406,53.1097135 L50.0349406,50.873515 L52.2711391,50.873515 L52.2711391,53.1097135 Z" id="Shape"></path>
                            <path d="M62.1942697,48.6373166 L57.7218728,48.6373166 C57.1043637,48.6373166 56.6037736,49.1379066 56.6037736,49.7554158 L56.6037736,54.2278127 C56.6037736,54.8453219 57.1043637,55.3459119 57.7218728,55.3459119 L62.1942697,55.3459119 C62.8117789,55.3459119 63.312369,54.8453219 63.312369,54.2278127 L63.312369,49.7554158 C63.312369,49.1379066 62.8117789,48.6373166 62.1942697,48.6373166 Z M61.0761705,53.1097135 L58.839972,53.1097135 L58.839972,50.873515 L61.0761705,50.873515 L61.0761705,53.1097135 Z" id="Shape"></path>
                            <path d="M44.5842068,56.6037736 L40.1118099,56.6037736 C39.4943008,56.6037736 38.9937107,57.1043637 38.9937107,57.7218728 L38.9937107,62.1942697 C38.9937107,62.8117789 39.4943008,63.312369 40.1118099,63.312369 L44.5842068,63.312369 C45.201716,63.312369 45.7023061,62.8117789 45.7023061,62.1942697 L45.7023061,57.7218728 C45.7023061,57.1043637 45.201716,56.6037736 44.5842068,56.6037736 Z M43.4661076,61.0761705 L41.2299092,61.0761705 L41.2299092,58.839972 L43.4661076,58.839972 L43.4661076,61.0761705 Z" id="Shape"></path>
                            <path d="M53.3892383,56.6037736 L48.9168414,56.6037736 C48.2993322,56.6037736 47.7987421,57.1043637 47.7987421,57.7218728 L47.7987421,62.1942697 C47.7987421,62.8117789 48.2993322,63.312369 48.9168414,63.312369 L53.3892383,63.312369 C54.0067474,63.312369 54.5073375,62.8117789 54.5073375,62.1942697 L54.5073375,57.7218728 C54.5073375,57.1043637 54.0067474,56.6037736 53.3892383,56.6037736 Z M52.2711391,61.0761705 L50.0349406,61.0761705 L50.0349406,58.839972 L52.2711391,58.839972 L52.2711391,61.0761705 Z" id="Shape"></path>
                            <path d="M62.1942697,56.6037736 L57.7218728,56.6037736 C57.1043637,56.6037736 56.6037736,57.1043637 56.6037736,57.7218728 L56.6037736,62.1942697 C56.6037736,62.8117789 57.1043637,63.312369 57.7218728,63.312369 L62.1942697,63.312369 C62.8117789,63.312369 63.312369,62.8117789 63.312369,62.1942697 L63.312369,57.7218728 C63.312369,57.1043637 62.8117789,56.6037736 62.1942697,56.6037736 Z M61.0761705,61.0761705 L58.839972,61.0761705 L58.839972,58.839972 L61.0761705,58.839972 L61.0761705,61.0761705 Z" id="Shape"></path>
                            <path d="M22.0050379,13.54355 L24.5545448,16.0832064 C24.9887279,16.5155814 25.6925389,16.5155814 26.1267221,16.0832064 L30.8999594,11.3284114 L30.8999594,13.0850163 L33.1236897,13.0850163 L33.1236897,8.65473911 C33.1236897,8.04304548 32.6258907,7.54716981 32.0118245,7.54716981 L27.5643638,7.54716981 L27.5643638,9.76230841 L29.327782,9.76230841 L25.3406334,13.7340519 L22.7911266,11.1943955 C22.3569434,10.7620205 21.6531324,10.7620205 21.2189492,11.1943955 L16.7714885,15.6246727 L18.3436658,17.1907757 L22.0050379,13.54355 Z" id="Path"></path>
                            <path d="M15.6239656,21.2438854 L15.6239656,6.70859539 L13.4171908,6.70859539 L13.4171908,22.3619846 C13.4171908,22.9794938 13.9111941,23.4800839 14.5205782,23.4800839 L34.3815514,23.4800839 L34.3815514,21.2438854 L15.6239656,21.2438854 Z" id="Path"></path>
                            <polygon id="Path" points="37.7358491 6.70859539 41.9287212 6.70859539 41.9287212 9.22431866 37.7358491 9.22431866"></polygon>
                            <polygon id="Path" points="44.4444444 6.70859539 53.2494759 6.70859539 53.2494759 9.22431866 44.4444444 9.22431866"></polygon>
                            <polygon id="Path" points="37.7358491 10.9014675 53.2494759 10.9014675 53.2494759 13.4171908 37.7358491 13.4171908"></polygon>
                            <polygon id="Path" points="13.4171908 25.1572327 22.2222222 25.1572327 22.2222222 27.672956 13.4171908 27.672956"></polygon>
                            <polygon id="Path" points="13.4171908 29.769392 22.2222222 29.769392 22.2222222 32.2851153 13.4171908 32.2851153"></polygon>
                        </g>
                    </g>
                </g>
            </g>
        </g>
    </g>
</svg>