<?xml version="1.0" encoding="UTF-8"?>
<svg width="160px" height="160px" viewBox="0 0 160 160" version="1.1" xmlns="http://www.w3.org/2000/svg" xmlns:xlink="http://www.w3.org/1999/xlink">
    <title>Group 45</title>
    <defs>
        <circle id="path-1" cx="60" cy="60" r="60"></circle>
        <filter x="-25.0%" y="-21.7%" width="156.7%" height="156.7%" filterUnits="objectBoundingBox" id="filter-2">
            <feOffset dx="4" dy="8" in="SourceAlpha" result="shadowOffsetOuter1"></feOffset>
            <feGaussianBlur stdDeviation="10" in="shadowOffsetOuter1" result="shadowBlurOuter1"></feGaussianBlur>
            <feColorMatrix values="0 0 0 0 0.268393806   0 0 0 0 0.341428607   0 0 0 0 0.473901721  0 0 0 0.15 0" type="matrix" in="shadowBlurOuter1"></feColorMatrix>
        </filter>
    </defs>
    <g id="Desktop_Final" stroke="none" stroke-width="1" fill="none" fill-rule="evenodd">
        <g id="01_Homepage_Jan2021" transform="translate(-154.000000, -2652.000000)">
            <g id="Group-39" transform="translate(0.000000, 2373.000000)">
                <g id="Group-26" transform="translate(140.000000, 291.000000)">
                    <g id="Group-45" transform="translate(30.000000, 0.000000)">
                        <g id="Oval-Copy-4">
                            <use fill="black" fill-opacity="1" filter="url(#filter-2)" xlink:href="#path-1"></use>
                            <use fill="#01446F" fill-rule="evenodd" xlink:href="#path-1"></use>
                        </g>
                        <g id="bars-copy" transform="translate(26.666667, 26.666667)" fill="#FFFFFF" fill-rule="nonzero">
                            <path d="M55.2986578,0 C50.1804329,0 46.1364033,4.8273605 46.1364033,10.8429943 C46.1364033,16.8586282 50.2436208,21.6117216 55.2986578,21.6117216 C60.3536947,21.6117216 64.5241002,16.7843611 64.5241002,10.7687273 C64.5241002,4.75309341 60.4168827,0 55.2986578,0 Z M55.2986578,19.2351749 C51.3178162,19.2351749 48.0952301,15.4475536 48.0952301,10.7687273 C48.0952301,6.08990094 51.3810041,2.37654671 55.2986578,2.37654671 C59.2794994,2.37654671 62.5020855,6.16416802 62.5020855,10.8429943 C62.5020855,15.5218207 59.2794994,19.2351749 55.2986578,19.2351749 Z" id="Shape"></path>
                            <path d="M58.1115243,12.6460841 C58.0510619,12.425141 58.0510619,12.2778456 57.930137,12.0569025 C57.8696745,11.9096071 57.8092121,11.6886641 57.6882872,11.5413687 C57.5673623,11.3940733 57.5068998,11.2467779 57.3859749,11.0994825 C57.26505,10.9521871 57.1441252,10.8048918 56.9627378,10.7312441 C56.8418129,10.5839487 56.6604256,10.510301 56.5395007,10.4366533 C56.3581133,10.3630056 56.2371885,10.2157102 56.0558011,10.1420625 C55.8744138,10.0684148 55.6930264,9.99476714 55.5721015,9.92111944 C55.5116391,9.92111944 55.3907142,9.84747175 55.3302518,9.77382406 C55.2697893,9.70017637 55.1488644,9.70017637 55.088402,9.62652867 C55.0279395,9.55288098 54.9070146,9.55288098 54.8465522,9.47923329 C54.7860897,9.4055856 54.7256273,9.3319379 54.6651648,9.25829021 C54.6047024,9.18464252 54.54424,9.11099483 54.54424,8.96369944 C54.4837775,8.89005175 54.4837775,8.74275636 54.4837775,8.66910867 C54.4837775,8.52181328 54.4837775,8.44816559 54.4837775,8.30087021 C54.4837775,8.22722251 54.54424,8.07992713 54.54424,8.00627943 C54.6047024,7.93263174 54.6047024,7.78533636 54.6651648,7.71168866 C54.7256273,7.63804097 54.7860897,7.56439328 54.8465522,7.49074559 C54.9070146,7.41709789 55.0279395,7.3434502 55.1488644,7.3434502 C55.2697893,7.26980251 55.3302518,7.26980251 55.4511767,7.26980251 C55.5116391,7.26980251 55.5721015,7.26980251 55.632564,7.26980251 C55.6930264,7.26980251 55.7534889,7.26980251 55.8139513,7.26980251 C55.9348762,7.26980251 55.9953387,7.26980251 56.1162636,7.3434502 C56.2371885,7.3434502 56.3581133,7.41709789 56.4185758,7.41709789 C56.4790382,7.41709789 56.5999631,7.49074559 56.6604256,7.49074559 C56.7813505,7.49074559 56.8418129,7.56439328 56.9022754,7.56439328 L57.2045876,7.71168866 L57.26505,7.26980251 L57.3859749,6.09143942 L57.3859749,5.79684865 L57.1441252,5.72320096 C57.0836627,5.72320096 56.9627378,5.64955327 56.9022754,5.64955327 C56.8418129,5.64955327 56.7813505,5.57590558 56.6604256,5.57590558 C56.5999631,5.57590558 56.4790382,5.50225788 56.3581133,5.50225788 C56.2371885,5.50225788 56.176726,5.42861019 56.0558011,5.42861019 L55.9953387,5.42861019 L55.9953387,4.39754249 L55.9953387,4.02930403 L55.6930264,4.02930403 L54.8465522,4.02930403 L54.54424,4.02930403 L54.54424,4.39754249 L54.54424,5.50225788 L54.4837775,5.50225788 C54.3023902,5.57590558 54.1210028,5.64955327 53.9396155,5.79684865 C53.7582282,5.87049635 53.6373033,6.01779173 53.5163784,6.16508712 C53.3954535,6.3123825 53.2745286,6.45967789 53.1536037,6.68062097 C53.0326788,6.82791635 52.9722163,7.04885943 52.9117539,7.26980251 C52.8512915,7.49074559 52.790829,7.71168866 52.7303666,7.93263174 C52.6699041,8.15357482 52.6699041,8.44816559 52.6699041,8.66910867 C52.6699041,8.89005175 52.6699041,9.03734713 52.7303666,9.25829021 C52.790829,9.47923329 52.790829,9.62652867 52.9117539,9.84747175 C52.9722163,9.99476714 53.0931412,10.2157102 53.1536037,10.3630056 C53.2745286,10.510301 53.334991,10.6575964 53.4559159,10.8048918 C53.5768408,10.9521871 53.6977657,11.0994825 53.879153,11.1731302 C54.0000779,11.3204256 54.1814653,11.3940733 54.3023902,11.467721 C54.4837775,11.5413687 54.6651648,11.6886641 54.7860897,11.7623118 C54.9674771,11.8359595 55.1488644,11.9096071 55.2697893,11.9832548 C55.3302518,11.9832548 55.4511767,12.0569025 55.5116391,12.1305502 C55.5721015,12.2041979 55.6930264,12.2041979 55.7534889,12.2778456 C55.8139513,12.3514933 55.8744138,12.425141 55.9348762,12.425141 C55.9953387,12.4987887 56.0558011,12.5724364 56.1162636,12.6460841 C56.176726,12.7197318 56.176726,12.7933795 56.2371885,12.9406748 C56.2371885,13.0143225 56.2976509,13.1616179 56.2976509,13.3089133 C56.2976509,13.4562087 56.2976509,13.5298564 56.2976509,13.6771518 C56.2976509,13.7507995 56.2371885,13.8980949 56.176726,13.9717425 C56.1162636,14.0453902 56.0558011,14.1190379 55.9953387,14.1926856 C55.9348762,14.2663333 55.8744138,14.339981 55.7534889,14.4136287 C55.6930264,14.4872764 55.5721015,14.4872764 55.5116391,14.5609241 C55.4511767,14.5609241 55.3302518,14.6345718 55.2093269,14.6345718 C55.1488644,14.6345718 55.088402,14.6345718 54.9674771,14.6345718 C54.9070146,14.6345718 54.7860897,14.6345718 54.7256273,14.6345718 C54.6047024,14.6345718 54.4837775,14.6345718 54.4233151,14.6345718 C54.3023902,14.6345718 54.1814653,14.5609241 54.1210028,14.5609241 C54.0000779,14.5609241 53.879153,14.4872764 53.7582282,14.4136287 C53.6373033,14.339981 53.5163784,14.339981 53.3954535,14.2663333 C53.334991,14.2663333 53.2745286,14.1926856 53.2140661,14.1926856 C53.1536037,14.1926856 53.0931412,14.1190379 53.0326788,14.1190379 L52.6699041,13.8980949 L52.6094417,14.4136287 L52.4885168,15.7392872 L52.4885168,15.9602302 L52.6699041,16.0338779 C52.9117539,15.9602302 53.0326788,16.0338779 53.2140661,16.1075256 C53.334991,16.1811733 53.5163784,16.254821 53.6373033,16.254821 C53.7582282,16.3284687 53.9396155,16.3284687 54.1210028,16.4021164 C54.3023902,16.4757641 54.4233151,16.4757641 54.6047024,16.4757641 L54.7256273,16.4757641 L54.7256273,17.5804795 L54.7256273,17.9487179 L55.0279395,17.9487179 L55.8744138,17.9487179 L56.176726,17.9487179 L56.176726,17.5804795 L56.176726,16.4021164 L56.2371885,16.4021164 C56.4185758,16.3284687 56.5999631,16.254821 56.7813505,16.1075256 C56.9627378,16.0338779 57.0836627,15.8865826 57.26505,15.7392872 C57.3859749,15.5919918 57.5068998,15.4446964 57.6278247,15.2237533 C57.7487496,15.0764579 57.8092121,14.8555149 57.930137,14.6345718 C57.9905994,14.4136287 58.0510619,14.1926856 58.1115243,13.9717425 C58.1719867,13.7507995 58.1719867,13.5298564 58.1719867,13.2352656 C58.1719867,13.0143225 58.1719867,12.8670272 58.1115243,12.6460841 Z" id="Path"></path>
                            <path d="M50.9545974,23.1667045 C50.6399856,22.6454682 49.9478398,22.5710058 49.5073833,22.9433175 L39.3139627,32.548958 L26.1631917,26.0707353 C25.84858,25.9218107 25.4710459,25.996273 25.2193565,26.21966 L11.1247502,38.1336327 C10.6842937,38.5059444 10.558449,39.2505677 10.8730608,39.771804 C11.0618278,40.1441156 11.3764396,40.2930403 11.6910513,40.2930403 C11.8798184,40.2930403 12.0685854,40.218578 12.2573525,40.0696533 L25.9115023,28.5279922 L39.1251957,35.0062149 C39.4398074,35.1551395 39.8802639,35.0806772 40.1319533,34.8572902 L50.7658303,24.8793381 C51.2062868,24.5070264 51.2692091,23.6879408 50.9545974,23.1667045 Z" id="Path"></path>
                            <path d="M65.5826738,64.2581163 L60.9385419,64.2581163 L60.9385419,29.4094034 C60.9385419,28.7319986 60.4992321,28.2051282 59.9344052,28.2051282 L50.7088999,28.2051282 C50.1440731,28.2051282 49.7047633,28.7319986 49.7047633,29.4094034 L49.7047633,64.2581163 L46.3158022,64.2581163 L46.3158022,41.4521552 C46.3158022,40.7747504 45.8764924,40.24788 45.3116655,40.24788 L36.0234017,40.24788 C35.4585748,40.24788 35.019265,40.7747504 35.019265,41.4521552 L35.019265,64.2581163 L31.6303039,64.2581163 L31.6303039,39.6457424 C31.6303039,38.9683376 31.1909941,38.4414672 30.6261673,38.4414672 L21.400662,38.4414672 C20.8358351,38.4414672 20.3965253,38.9683376 20.3965253,39.6457424 L20.3965253,64.2581163 L17.0075642,64.2581163 L17.0075642,46.720859 C17.0075642,46.0434543 16.5682544,45.5165839 16.0034276,45.5165839 L6.71516373,45.5165839 C6.15033687,45.5165839 5.7110271,46.0434543 5.7110271,46.720859 L5.7110271,64.2581163 L1.00413663,64.2581163 C0.439309777,64.2581163 0,64.7849867 0,65.4623915 C0,66.1397963 0.439309777,66.6666667 1.00413663,66.6666667 L6.65240519,66.6666667 L15.8779105,66.6666667 L21.400662,66.6666667 L30.6261673,66.6666667 L36.0234017,66.6666667 L45.248907,66.6666667 L50.6461414,66.6666667 L59.8716467,66.6666667 L65.5199152,66.6666667 C66.0847421,66.6666667 66.5240519,66.1397963 66.5240519,65.4623915 C66.5868104,64.7849867 66.1475006,64.2581163 65.5826738,64.2581163 Z M14.9365324,64.2581163 L7.71930036,64.2581163 L7.71930036,47.9251342 L14.9365324,47.9251342 L14.9365324,64.2581163 Z M29.6220306,64.2581163 L22.4047986,64.2581163 L22.4047986,40.8500176 L29.6220306,40.8500176 L29.6220306,64.2581163 Z M44.2447704,64.2581163 L37.0275383,64.2581163 L37.0275383,42.6564303 L44.2447704,42.6564303 L44.2447704,64.2581163 Z M58.9302686,64.2581163 L51.7130366,64.2581163 L51.7130366,30.6136786 L58.9302686,30.6136786 L58.9302686,64.2581163 Z" id="Shape"></path>
                        </g>
                    </g>
                </g>
            </g>
        </g>
    </g>
</svg>