<svg width="80" height="80" viewBox="0 0 80 80" fill="none" xmlns="http://www.w3.org/2000/svg">
<circle cx="40" cy="40" r="40" fill="#01446F"/>
<path fill-rule="evenodd" clip-rule="evenodd" d="M62.1361 42.1387C61.737 37.9573 59.9439 34.0153 57.0867 31.0387C54.645 28.4952 51.6564 26.8606 48.5117 26.1338V23.8361C49.7961 23.5032 50.7508 22.2921 50.7508 20.8525C50.7508 19.1571 49.4269 17.7778 47.7994 17.7778H41.5493C39.9219 17.7778 38.5979 19.1571 38.5979 20.8525C38.5979 22.292 39.5526 23.5032 40.8369 23.8361V26.1402C37.7019 26.8701 34.7232 28.5024 32.2884 31.0388C31.7556 31.5939 31.2643 32.1762 30.8145 32.7813C30.7927 32.7796 30.7709 32.7779 30.7487 32.7779H24.5628C24.0834 32.7779 23.6947 33.1828 23.6947 33.6822C23.6947 34.1817 24.0834 34.5865 24.5628 34.5865H29.6333C28.9969 35.6966 28.4837 36.8623 28.093 38.0624H18.6454C18.1661 38.0624 17.7773 38.4672 17.7773 38.9667C17.7773 39.4661 18.1661 39.871 18.6454 39.871H27.6025C27.3523 41.0151 27.2087 42.1794 27.1717 43.3469H23.333C22.8536 43.3469 22.4649 43.7518 22.4649 44.2512C22.4649 44.7507 22.8536 45.1556 23.333 45.1556H27.1994C27.2726 46.3261 27.4533 47.4905 27.7414 48.6315H22.1177C21.6383 48.6315 21.2496 49.0363 21.2496 49.5358C21.2496 50.0353 21.6383 50.4401 22.1177 50.4401H28.2954C29.147 52.7869 30.4778 54.9865 32.2884 56.8727C35.1484 59.8521 38.9363 61.7206 42.9542 62.1341C43.5276 62.1931 44.1015 62.2223 44.6746 62.2223C48.062 62.2223 51.4063 61.201 54.244 59.2759C54.6458 59.0034 54.7594 58.4431 54.4978 58.0246C54.2361 57.6061 53.6984 57.4877 53.2966 57.7603C47.085 61.9741 38.766 61.063 33.516 55.5938C27.356 49.1766 27.356 38.7351 33.516 32.3178C39.6759 25.9007 49.6989 25.9007 55.859 32.3178C61.102 37.7799 61.9814 46.4388 57.9498 52.9066C57.6887 53.3255 57.803 53.8857 58.205 54.1576C58.6073 54.4296 59.1448 54.3105 59.4058 53.8916C61.5599 50.4358 62.5295 46.2619 62.1361 42.1387ZM40.334 20.8526C40.334 20.1545 40.8792 19.5866 41.5493 19.5866H47.7994C48.4696 19.5866 49.0147 20.1545 49.0147 20.8526C49.0147 21.5507 48.4696 22.1186 47.7994 22.1186H47.6437H41.705H41.5493C40.8792 22.1186 40.334 21.5506 40.334 20.8526ZM42.573 23.9273V25.8293C43.9683 25.6542 45.3801 25.6532 46.7756 25.8261V23.9273H42.573Z" fill="white"/>
<path d="M56.1897 54.9255C55.9383 54.9255 55.6935 55.032 55.5164 55.2171C55.3384 55.4022 55.2373 55.6589 55.2373 55.9206C55.2373 56.1823 55.3384 56.439 55.5164 56.624C55.6935 56.8101 55.9384 56.9156 56.1897 56.9156C56.4402 56.9156 56.6849 56.8101 56.863 56.624C57.0402 56.439 57.1421 56.1823 57.1421 55.9206C57.1421 55.6589 57.0403 55.4022 56.863 55.2171C56.6849 55.032 56.4401 54.9255 56.1897 54.9255Z" fill="white"/>
<path fill-rule="evenodd" clip-rule="evenodd" d="M31.1104 43.6484C31.1104 35.9671 37.2917 29.718 44.8896 29.718C52.4875 29.718 58.6688 35.9671 58.6688 43.6484C58.6688 44.0943 58.81 43.9263 58.9198 43.7956C59.1176 43.5601 59.2136 43.4458 58.1987 47.2624C56.6203 53.1973 51.2515 57.5787 44.8896 57.5787C37.2917 57.5787 31.1104 51.3296 31.1104 43.6484ZM32.8868 43.6484C32.8868 50.3393 38.2712 55.7827 44.8896 55.7827C51.508 55.7827 56.8924 50.3393 56.8924 43.6484C56.8924 36.9575 51.508 31.514 44.8896 31.514C38.2712 31.514 32.8868 36.9575 32.8868 43.6484Z" fill="white"/>
<path fill-rule="evenodd" clip-rule="evenodd" d="M45.7181 41.7004L49.9649 37.2765C50.2999 36.9277 50.8426 36.9277 51.1775 37.2765C51.5123 37.6253 51.5123 38.1909 51.1775 38.5397L51.0529 38.6694L46.9308 42.9636C47.1064 43.3336 47.2056 43.7497 47.2056 44.1896C47.2056 45.72 46.0104 46.9651 44.5413 46.9651C43.0721 46.9651 41.8769 45.72 41.8769 44.1896C41.8769 43.7497 41.9761 43.3336 42.1517 42.9636L40.2511 40.9836C39.9163 40.6348 39.9163 40.0693 40.2511 39.7205C40.5861 39.3717 41.1288 39.3717 41.4638 39.7205L43.3644 41.7004C43.7195 41.5175 44.1189 41.4142 44.5413 41.4142C44.9635 41.4142 45.363 41.5175 45.7181 41.7004ZM43.5918 44.1897C43.5918 44.7351 44.0177 45.1788 44.5413 45.1788C45.0648 45.1788 45.4908 44.7351 45.4908 44.1897C45.4908 43.6443 45.0648 43.2006 44.5413 43.2006C44.0177 43.2006 43.5918 43.6443 43.5918 44.1897Z" fill="white"/>
<path d="M54.3701 42.9851H53.5661C53.0869 42.9851 52.6982 43.4306 52.6982 43.9801C52.6982 44.5297 53.0869 44.9752 53.5661 44.9752H54.3701C54.8493 44.9752 55.2379 44.5297 55.2379 43.9801C55.2379 43.4306 54.8493 42.9851 54.3701 42.9851Z" fill="white"/>
<path d="M35.957 42.9851H35.153C34.6738 42.9851 34.2852 43.4306 34.2852 43.9801C34.2852 44.5297 34.6738 44.9752 35.153 44.9752H35.957C36.4362 44.9752 36.8248 44.5297 36.8248 43.9801C36.8248 43.4306 36.4362 42.9851 35.957 42.9851Z" fill="white"/>
<path d="M44.762 36.3516C45.2879 36.3516 45.7143 35.9457 45.7143 35.4449V34.605C45.7143 34.1042 45.2879 33.6982 44.762 33.6982C44.236 33.6982 43.8096 34.1042 43.8096 34.605V35.4449C43.8096 35.9457 44.236 36.3516 44.762 36.3516Z" fill="white"/>
<path d="M44.762 51.6086C44.236 51.6086 43.8096 52.0146 43.8096 52.5154V53.3553C43.8096 53.8561 44.236 54.262 44.762 54.262C45.2879 54.262 45.7143 53.8561 45.7143 53.3553V52.5154C45.7143 52.0146 45.2879 51.6086 44.762 51.6086Z" fill="white"/>
<path d="M18.7297 48.292C18.4792 48.292 18.2335 48.3985 18.0564 48.5835C17.8792 48.7686 17.7773 49.0253 17.7773 49.287C17.7773 49.5497 17.8792 49.8054 18.0564 49.9905C18.2336 50.1756 18.4792 50.282 18.7297 50.282C18.9802 50.282 19.2259 50.1756 19.403 49.9905C19.5801 49.8054 19.6821 49.5487 19.6821 49.287C19.6821 49.0253 19.5802 48.7686 19.403 48.5835C19.2259 48.3985 18.9802 48.292 18.7297 48.292Z" fill="white"/>
</svg>
