<svg width="80" height="80" viewBox="0 0 80 80" fill="none" xmlns="http://www.w3.org/2000/svg">
<circle cx="40" cy="40" r="40" fill="#01446F"/>
<path d="M52.6649 33.0004C52.6463 32.8767 52.6349 32.7545 52.6311 32.6371C52.6102 32.0013 52.1427 31.5034 51.5664 31.5034H27.9777C27.4014 31.5034 26.9339 32.0013 26.913 32.6371C26.9093 32.7541 26.8978 32.8763 26.8792 33C26.7326 33.9807 26.0006 34.7297 25.0991 34.8219C25.0403 34.8279 24.9829 34.832 24.9285 34.8335C24.3489 34.8523 23.8945 35.3731 23.8945 36.0191V39.4684C23.8945 39.8693 24.1864 40.1938 24.5461 40.1938C24.9062 40.1938 25.1981 39.8689 25.1981 39.4684V36.2688C25.2048 36.2681 25.2116 36.2673 25.2183 36.2669C26.7093 36.1143 27.921 34.8689 28.1648 33.2388C28.179 33.1437 28.1905 33.0485 28.199 32.9541H51.3448C51.3533 33.0485 51.3648 33.1437 51.3793 33.2392C51.6232 34.8696 52.8355 36.1147 54.3275 36.2669C54.3336 36.2673 54.34 36.2681 54.3461 36.2688V43.7315C54.3397 43.7322 54.3336 43.733 54.3272 43.7334C52.8355 43.8856 51.6232 45.1307 51.3793 46.7615C51.3651 46.8566 51.3536 46.9518 51.3448 47.0462H28.1993C28.1909 46.9522 28.1794 46.857 28.1652 46.7619C27.9213 45.1314 26.7093 43.886 25.2183 43.7337C25.2116 43.733 25.2048 43.7322 25.1981 43.7315V42.8343C25.1981 42.4338 24.9062 42.1089 24.5465 42.1089C24.1864 42.1089 23.8949 42.4338 23.8949 42.8343V43.9812C23.8949 44.6272 24.3489 45.148 24.9278 45.1668C24.9839 45.1687 25.0417 45.1724 25.0991 45.1784C26.0006 45.2709 26.7326 46.02 26.8796 47.0003C26.8981 47.124 26.9093 47.2462 26.913 47.3632C26.9339 47.999 27.4014 48.4969 27.978 48.4969H51.5664C52.1427 48.4969 52.6105 47.999 52.6311 47.3632C52.6352 47.2458 52.6463 47.1236 52.6649 46.9999C52.8119 46.0192 53.5442 45.2702 54.4461 45.1784C54.5048 45.1724 54.5619 45.1687 54.616 45.1668C55.1956 45.148 55.6496 44.6272 55.6496 43.9812V36.0191C55.6496 35.3731 55.1956 34.8527 54.616 34.8335C54.5619 34.832 54.5048 34.8279 54.4461 34.8219C53.5438 34.7301 52.8115 33.9811 52.6649 33.0004Z" fill="white"/>
<path d="M29.6242 40.6538C29.9993 40.6538 30.3036 40.2878 30.3036 39.8368C30.3036 39.3853 29.9993 39.0198 29.6242 39.0198H28.3611C27.9856 39.0198 27.6816 39.3857 27.6816 39.8368C27.6816 40.2878 27.9856 40.6538 28.3611 40.6538H29.6242Z" fill="white"/>
<path d="M51.4758 40.6538C51.8509 40.6538 52.1552 40.2878 52.1552 39.8368C52.1552 39.3853 51.8509 39.0198 51.4758 39.0198H50.2129C49.8375 39.0198 49.5332 39.3857 49.5332 39.8368C49.5332 40.2878 49.8375 40.6538 50.2129 40.6538H51.4758Z" fill="white"/>
<path fill-rule="evenodd" clip-rule="evenodd" d="M39.7721 34.1177C42.5833 34.1177 44.8704 36.6833 44.8704 39.8366C44.8704 42.99 42.5833 45.5556 39.7721 45.5556C36.961 45.5556 34.6738 42.99 34.6738 39.8366C34.6738 36.6833 36.961 34.1177 39.7721 34.1177ZM39.7721 35.5726C37.6759 35.5726 35.9705 37.4856 35.9705 39.8366C35.9705 42.1881 37.6759 44.1011 39.7721 44.1011C41.8684 44.1011 43.5737 42.1881 43.5737 39.8366C43.5737 37.4856 41.8684 35.5726 39.7721 35.5726Z" fill="white"/>
<path fill-rule="evenodd" clip-rule="evenodd" d="M62.0515 27.8753C61.943 26.9672 61.741 26.1112 61.4515 25.3304C60.5085 22.7881 58.2781 21.1456 55.7692 21.1456H54.1188V18.7272C54.1188 18.3706 53.9428 18.0476 53.6594 17.884C53.3759 17.7205 53.0381 17.7473 52.7783 17.9543L50.1184 20.0705C49.8251 20.3036 49.7566 20.7588 49.965 21.0867C50.1738 21.4145 50.5806 21.4912 50.8742 21.2582L52.8151 19.7135V21.6544C52.8151 22.1776 53.1958 22.6033 53.6638 22.6033H55.7692C57.7493 22.6033 59.5072 23.893 60.2474 25.8887C60.3241 26.0949 60.3933 26.308 60.4555 26.5275C59.1666 25.4849 57.5172 25.4796 56.0216 25.475C55.803 25.4743 55.5858 25.4735 55.3719 25.4697C55.0479 25.4641 54.7297 25.4852 54.4219 25.5064C54.1584 25.5245 53.9097 25.5415 53.6641 25.5415C53.1958 25.5415 52.8151 25.9672 52.8151 26.4904V28.8393L47.0801 24.2764L48.4376 23.1964C48.7309 22.9633 48.7994 22.5081 48.591 22.1803C48.3822 21.8524 47.9754 21.7757 47.6818 22.0091L45.8034 23.5035C45.5801 23.6811 45.4466 23.9701 45.4466 24.2764C45.4466 24.5832 45.5801 24.8721 45.8034 25.0497L49.2768 27.813H22.1122C21.2004 27.813 20.4588 28.6425 20.4588 29.6617V50.3385C20.4588 51.358 21.2004 52.1872 22.1122 52.1872H25.7181V53.0153C25.589 53.0221 25.4613 53.0307 25.3356 53.0394C25.04 53.0595 24.761 53.0783 24.487 53.0734C24.267 53.0693 24.0437 53.0685 23.819 53.0681H23.8188C22.051 53.0625 20.3811 53.0571 19.4311 51.4419C19.198 51.0456 18.7581 50.8843 18.3615 51.0502C17.9665 51.2153 17.7297 51.6572 17.7854 52.1253C17.8939 53.0334 18.0959 53.8894 18.3854 54.6702C19.3284 57.2121 21.5588 58.8546 24.0677 58.8546H25.7181V61.273C25.7181 61.6296 25.8941 61.9529 26.1775 62.1161C26.3009 62.1871 26.4343 62.2223 26.5671 62.2223C26.7397 62.2223 26.9117 62.163 27.0587 62.0462L34.0335 56.497C34.2568 56.3191 34.3899 56.0301 34.3899 55.7238C34.3899 55.4174 34.2568 55.1284 34.0335 54.9509L30.5598 52.1872H57.7247C58.6362 52.1872 59.3781 51.3577 59.3781 50.3385V29.6617C59.3781 28.6421 58.6362 27.813 57.7247 27.813H54.1188V26.9853C54.2482 26.9785 54.3759 26.9698 54.5016 26.9611L54.5155 26.9602L54.5156 26.9602C54.806 26.9405 55.0803 26.9219 55.3503 26.9271C55.5702 26.9309 55.7932 26.9317 56.0182 26.9324H56.0184C57.786 26.9381 59.4558 26.9434 60.4062 28.5586C60.639 28.9549 61.0788 29.1158 61.4755 28.9504C61.8704 28.7853 62.1076 28.3433 62.0515 27.8753ZM32.7568 55.7238L27.0218 60.2867V58.3461C27.0218 57.8229 26.6411 57.3972 26.1732 57.3972H24.0677C22.0876 57.3972 20.3298 56.1076 19.5895 54.1119C19.5128 53.9052 19.4436 53.6922 19.3814 53.4731C20.6702 54.5156 22.3194 54.5206 23.8149 54.5251H23.8153C24.0339 54.5259 24.2511 54.5267 24.465 54.5308C24.7897 54.5365 25.1076 54.5149 25.415 54.4938L25.4254 54.4931C25.6851 54.4756 25.9308 54.459 26.1732 54.459C26.6411 54.459 27.0218 54.0333 27.0218 53.5101V51.1609L32.7568 55.7238ZM58.0744 29.6617C58.0744 29.446 57.9173 29.2703 57.7247 29.2703V29.2707H54.1188V29.8256C54.1188 30.1822 53.9428 30.5052 53.6594 30.6688C53.5361 30.7398 53.4026 30.7749 53.2698 30.7749C53.0972 30.7749 52.9252 30.7156 52.7783 30.5989L51.109 29.2703H22.1122C21.9193 29.2703 21.7622 29.446 21.7622 29.6617V50.3385C21.7622 50.5542 21.9193 50.7295 22.1122 50.7295H25.7181V50.1745C25.7181 49.8179 25.8941 49.495 26.1775 49.3314C26.461 49.1678 26.7985 49.1946 27.0587 49.4017L28.7276 50.7295H57.7247C57.9176 50.7295 58.0744 50.5542 58.0744 50.3385V29.6617Z" fill="white"/>
</svg>
