<svg width="80" height="80" viewBox="0 0 80 80" fill="none" xmlns="http://www.w3.org/2000/svg">
<circle cx="40" cy="40" r="40" fill="#01446F"/>
<path fill-rule="evenodd" clip-rule="evenodd" d="M48.5352 25.0065C48.5352 20.9961 51.2312 17.7778 54.6433 17.7778C58.0555 17.7778 60.7936 20.9466 60.7936 24.957C60.7936 28.9674 58.0134 32.1856 54.6433 32.1856C51.2733 32.1856 48.5352 29.0169 48.5352 25.0065ZM49.841 24.957C49.841 28.0762 51.9894 30.6013 54.6433 30.6013C57.2972 30.6013 59.4456 28.1257 59.4456 25.0065C59.4456 21.8873 57.2972 19.3622 54.6433 19.3622C52.0316 19.3622 49.841 21.8378 49.841 24.957Z" fill="white"/>
<path d="M56.5182 26.2086C56.4779 26.0613 56.4779 25.9631 56.3973 25.8158C56.357 25.7176 56.3167 25.5704 56.236 25.4722C56.1554 25.374 56.1151 25.2758 56.0345 25.1776C55.9539 25.0794 55.8733 24.9812 55.7523 24.9321C55.6717 24.8339 55.5508 24.7848 55.4702 24.7357C55.3493 24.6866 55.2686 24.5884 55.1477 24.5393C55.0268 24.4902 54.9059 24.4411 54.8253 24.392C54.7849 24.392 54.7043 24.3429 54.664 24.2938C54.6237 24.2447 54.5431 24.2447 54.5028 24.1956C54.4625 24.1465 54.3819 24.1465 54.3416 24.0974C54.3012 24.0483 54.2609 23.9992 54.2206 23.9501C54.1803 23.901 54.14 23.8519 54.14 23.7537C54.0997 23.7046 54.0997 23.6064 54.0997 23.5573C54.0997 23.4591 54.0997 23.41 54.0997 23.3118C54.0997 23.2627 54.14 23.1645 54.14 23.1154C54.1803 23.0663 54.1803 22.9681 54.2206 22.919C54.2609 22.8699 54.3012 22.8208 54.3416 22.7717C54.3819 22.7226 54.4625 22.6735 54.5431 22.6735C54.6237 22.6244 54.664 22.6244 54.7446 22.6244C54.7849 22.6244 54.8253 22.6244 54.8656 22.6244C54.9059 22.6244 54.9462 22.6244 54.9865 22.6244C55.0671 22.6244 55.1074 22.6244 55.188 22.6735C55.2686 22.6735 55.3493 22.7226 55.3896 22.7226C55.4299 22.7226 55.5105 22.7717 55.5508 22.7717C55.6314 22.7717 55.6717 22.8208 55.712 22.8208L55.9136 22.919L55.9539 22.6244L56.0345 21.8389V21.6425L55.8733 21.5934C55.833 21.5934 55.7523 21.5443 55.712 21.5443C55.6717 21.5443 55.6314 21.4952 55.5508 21.4952C55.5105 21.4952 55.4299 21.4461 55.3493 21.4461C55.2686 21.4461 55.2283 21.397 55.1477 21.397H55.1074V20.7096V20.4641H54.9059H54.3416H54.14V20.7096V21.4461H54.0997C53.9788 21.4952 53.8579 21.5443 53.7369 21.6425C53.616 21.6916 53.5354 21.7898 53.4548 21.888C53.3742 21.9862 53.2935 22.0844 53.2129 22.2317C53.1323 22.3299 53.092 22.4771 53.0517 22.6244C53.0114 22.7717 52.9711 22.919 52.9308 23.0663C52.8905 23.2136 52.8905 23.41 52.8905 23.5573C52.8905 23.7046 52.8905 23.8028 52.9308 23.9501C52.9711 24.0974 52.9711 24.1956 53.0517 24.3429C53.092 24.4411 53.1726 24.5884 53.2129 24.6866C53.2935 24.7848 53.3338 24.883 53.4145 24.9812C53.4951 25.0794 53.5757 25.1776 53.6966 25.2267C53.7772 25.3249 53.8982 25.374 53.9788 25.4231C54.0997 25.4722 54.2206 25.5704 54.3012 25.6194C54.4222 25.6685 54.5431 25.7176 54.6237 25.7667C54.664 25.7667 54.7446 25.8158 54.7849 25.8649C54.8253 25.914 54.9059 25.914 54.9462 25.9631C54.9865 26.0122 55.0268 26.0613 55.0671 26.0613C55.1074 26.1104 55.1477 26.1595 55.188 26.2086C55.2283 26.2577 55.2283 26.3068 55.2686 26.405C55.2686 26.4541 55.309 26.5523 55.309 26.6505C55.309 26.7487 55.309 26.7978 55.309 26.896C55.309 26.9451 55.2686 27.0433 55.2283 27.0924C55.188 27.1415 55.1477 27.1906 55.1074 27.2397C55.0671 27.2888 55.0268 27.3379 54.9462 27.387C54.9059 27.4361 54.8253 27.4361 54.7849 27.4852C54.7446 27.4852 54.664 27.5343 54.5834 27.5343C54.5431 27.5343 54.5028 27.5343 54.4222 27.5343C54.3819 27.5343 54.3012 27.5343 54.2609 27.5343C54.1803 27.5343 54.0997 27.5343 54.0594 27.5343C53.9788 27.5343 53.8982 27.4852 53.8579 27.4852C53.7772 27.4852 53.6966 27.4361 53.616 27.387C53.5354 27.3379 53.4548 27.3379 53.3742 27.2888C53.3338 27.2888 53.2935 27.2397 53.2532 27.2397C53.2129 27.2397 53.1726 27.1906 53.1323 27.1906L52.8905 27.0433L52.8501 27.387L52.7695 28.2708V28.4181L52.8905 28.4672C53.0517 28.4181 53.1323 28.4672 53.2532 28.5163C53.3338 28.5654 53.4548 28.6145 53.5354 28.6145C53.616 28.6636 53.7369 28.6636 53.8579 28.7127C53.9788 28.7618 54.0594 28.7618 54.1803 28.7618H54.2609V29.4982V29.7437H54.4625H55.0268H55.2283V29.4982V28.7127H55.2686C55.3896 28.6636 55.5105 28.6145 55.6314 28.5163C55.7523 28.4672 55.833 28.369 55.9539 28.2708C56.0345 28.1726 56.1151 28.0744 56.1957 27.9271C56.2764 27.8289 56.3167 27.6816 56.3973 27.5343C56.4376 27.387 56.4779 27.2397 56.5182 27.0924C56.5585 26.9451 56.5585 26.7978 56.5585 26.6014C56.5585 26.4541 56.5585 26.3559 56.5182 26.2086Z" fill="white"/>
<path d="M51.7477 33.2223C51.5379 32.8748 51.0765 32.8251 50.7829 33.0733L43.9873 39.4771L35.2201 35.1583C35.0103 35.059 34.7587 35.1086 34.5909 35.2576L25.1945 43.2002C24.9008 43.4484 24.8169 43.9448 25.0267 44.2923C25.1525 44.5405 25.3623 44.6398 25.572 44.6398C25.6978 44.6398 25.8237 44.5902 25.9495 44.4909L35.0523 36.7965L43.8614 41.1153C44.0712 41.2146 44.3648 41.1649 44.5326 41.016L51.6218 34.364C51.9155 34.1158 51.9574 33.5698 51.7477 33.2223Z" fill="white"/>
<path fill-rule="evenodd" clip-rule="evenodd" d="M61.4991 60.6166H58.403V37.3841C58.403 36.9325 58.1102 36.5813 57.7336 36.5813H51.5833C51.2067 36.5813 50.9139 36.9325 50.9139 37.3841V60.6166H48.6545V45.4127C48.6545 44.961 48.3617 44.6098 47.9851 44.6098H41.7929C41.4164 44.6098 41.1235 44.961 41.1235 45.4127V60.6166H38.8642V44.2084C38.8642 43.7568 38.5713 43.4055 38.1948 43.4055H32.0445C31.6679 43.4055 31.375 43.7568 31.375 44.2084V60.6166H29.1157V48.9251C29.1157 48.4735 28.8228 48.1223 28.4463 48.1223H22.2541C21.8776 48.1223 21.5847 48.4735 21.5847 48.9251V60.6166H18.4468C18.0702 60.6166 17.7773 60.9679 17.7773 61.4195C17.7773 61.8711 18.0702 62.2223 18.4468 62.2223H22.2123H28.3626H32.0445H38.1948H41.7929H47.9433H51.5414H57.6918H61.4573C61.8338 62.2223 62.1267 61.8711 62.1267 61.4195C62.1686 60.9679 61.8757 60.6166 61.4991 60.6166ZM27.735 60.6166H22.9235V49.728H27.735V60.6166ZM32.7139 60.6166H37.5254V45.0112H32.7139V60.6166ZM47.2739 60.6166H42.4624V46.2155H47.2739V60.6166ZM52.2527 60.6166H57.0642V38.187H52.2527V60.6166Z" fill="white"/>
</svg>
