<svg width="80" height="80" viewBox="0 0 80 80" fill="none" xmlns="http://www.w3.org/2000/svg">
<circle cx="40" cy="40" r="40" fill="#01446F"/>
<path fill-rule="evenodd" clip-rule="evenodd" d="M62.2207 48.4774C62.2208 48.4726 62.221 48.4679 62.2213 48.4631C62.2216 48.4579 62.2219 48.4527 62.2219 48.4474L62.2217 48.4435L62.2215 48.4407C62.2214 48.4243 62.2203 48.408 62.219 48.3916L62.2185 48.3848C62.2182 48.3791 62.2178 48.3734 62.2172 48.3678C62.2156 48.3537 62.2132 48.3397 62.2108 48.3256L62.2092 48.3162L62.2077 48.3072L62.2054 48.2953C62.2035 48.2871 62.2013 48.2788 62.1991 48.2706L62.197 48.2629L62.1933 48.249L62.1907 48.2393C62.1893 48.2343 62.1878 48.2293 62.1862 48.2244C62.1845 48.2191 62.1825 48.2139 62.1805 48.2087L62.1772 48.1996L62.1704 48.1817L62.1662 48.171L62.16 48.1562L62.1592 48.1543L62.1573 48.1494L54.5425 31.3967V29.2009H54.5905C55.4109 29.2009 56.0784 28.5335 56.0784 27.713V27.599C56.0784 26.8648 55.5523 26.2471 54.8276 26.1301L42.2555 24.1013V22.8122C42.7327 22.2775 43.0234 21.573 43.0234 20.8016C43.0234 19.1343 41.667 17.7778 39.9997 17.7778C38.3324 17.7778 36.9759 19.1343 36.9759 20.8016C36.9759 21.573 37.2667 22.2775 37.7438 22.8122V24.0313L25.1641 26.128C24.4438 26.2481 23.9209 26.8653 23.9209 27.5956V27.713C23.9209 28.5335 24.5884 29.2009 25.4088 29.2009H25.4568V31.3967L17.8419 48.1494L17.8404 48.1532L17.8393 48.1562C17.833 48.1703 17.8275 48.1849 17.8222 48.1995L17.8196 48.2062L17.8196 48.2063C17.8174 48.2123 17.8151 48.2183 17.8131 48.2244C17.8089 48.237 17.8056 48.2499 17.8022 48.2629L17.8001 48.2706L17.8001 48.2706C17.7979 48.2789 17.7957 48.2871 17.7939 48.2953C17.7923 48.3028 17.791 48.3103 17.7898 48.3178L17.7898 48.3178L17.7885 48.3256L17.7877 48.3299L17.7877 48.3299C17.7856 48.3426 17.7834 48.3551 17.782 48.3678C17.7815 48.3725 17.7812 48.3773 17.7809 48.3821L17.7809 48.3821L17.7802 48.3917C17.779 48.408 17.7779 48.4243 17.7777 48.4406L17.7775 48.444L17.7773 48.4473C17.7773 48.4526 17.7776 48.4579 17.7779 48.4631C17.7782 48.4679 17.7784 48.4727 17.7785 48.4775L17.7788 48.4869C17.7789 48.4919 17.779 48.4968 17.7795 48.5018C17.8244 51.4631 21.4957 53.775 26.1768 53.775C30.8578 53.775 34.5292 51.4631 34.574 48.5019C34.5747 48.4938 34.5746 48.4857 34.5749 48.4775C34.575 48.4727 34.5753 48.468 34.5755 48.4632L34.5758 48.4573L34.5761 48.4475C34.5761 48.4453 34.5758 48.4431 34.5757 48.4408C34.5757 48.4327 34.5754 48.4247 34.5749 48.4167C34.5745 48.4084 34.5738 48.4 34.5732 48.3917L34.5725 48.3804L34.5721 48.3749L34.5714 48.3679C34.5705 48.3599 34.5694 48.352 34.5681 48.3441L34.5657 48.3301L34.565 48.3257L34.5636 48.3173C34.5624 48.31 34.5612 48.3027 34.5596 48.2954C34.5578 48.2872 34.5555 48.2789 34.5533 48.2707L34.5512 48.263L34.5495 48.2565C34.5467 48.2457 34.5438 48.235 34.5404 48.2245C34.5387 48.2192 34.5367 48.214 34.5347 48.2087L34.5314 48.1997C34.5284 48.1916 34.5254 48.1836 34.5223 48.1756C34.5197 48.1691 34.517 48.1627 34.5142 48.1563L34.513 48.1532L34.5115 48.1495L26.8967 31.3967V29.2009H37.7438V44.8424C37.2864 45.0965 36.9759 45.5842 36.9759 46.1436V56.7494L32.4153 58.1746C31.4685 58.4705 30.8324 59.3358 30.8324 60.3278V61.5023C30.8324 61.8999 31.1546 62.2223 31.5523 62.2223H48.447C48.8447 62.2223 49.1669 61.8999 49.1669 61.5023V60.3277C49.1669 59.3357 48.5308 58.4704 47.584 58.1745L43.0234 56.7494V46.1436C43.0234 45.5842 42.7129 45.0965 42.2555 44.8424V29.2009H53.1026V31.3967L45.4877 48.1495L45.4862 48.1533L45.485 48.1563C45.4788 48.1704 45.4733 48.185 45.468 48.1996C45.4649 48.2079 45.4616 48.2161 45.4588 48.2245C45.4547 48.2371 45.4514 48.25 45.448 48.263L45.4452 48.2733C45.4432 48.2807 45.4413 48.288 45.4396 48.2954C45.4375 48.3054 45.436 48.3156 45.4343 48.3257L45.4335 48.3301L45.4299 48.3519C45.4291 48.3573 45.4284 48.3626 45.4278 48.3679L45.4271 48.3756L45.4267 48.3822L45.426 48.3918C45.4248 48.4081 45.4237 48.4244 45.4235 48.4407L45.4233 48.4445L45.4231 48.4474C45.4231 48.4576 45.4242 48.4674 45.4243 48.4776L45.4246 48.487C45.4247 48.4919 45.4248 48.4969 45.4252 48.5019C45.4702 51.4631 49.1415 53.775 53.8226 53.775C58.5036 53.775 62.1749 51.4631 62.2198 48.5019C62.2204 48.4937 62.2203 48.4856 62.2207 48.4774ZM26.1768 33.2926L32.738 47.7274H19.6155L26.1768 33.2926ZM19.3427 49.1673C19.9668 50.9449 22.8431 52.3351 26.1768 52.3351C29.5104 52.3351 32.3867 50.9449 33.0109 49.1673H19.3427ZM41.5835 46.1436V56.5587H38.4158V46.1436C38.4158 46.1171 38.4374 46.0956 38.4638 46.0956H41.5355C41.5619 46.0956 41.5835 46.1171 41.5835 46.1436ZM39.1837 23.7126V44.6557H40.8156V23.7126C40.5558 23.7855 40.2824 23.8253 39.9997 23.8253C39.717 23.8253 39.4435 23.7855 39.1837 23.7126ZM39.9997 19.2177C40.873 19.2177 41.5835 19.9283 41.5835 20.8016C41.5835 21.6749 40.873 22.3855 39.9997 22.3855C39.1263 22.3855 38.4158 21.6749 38.4158 20.8016C38.4158 19.9283 39.1263 19.2177 39.9997 19.2177ZM25.3608 27.713C25.3608 27.7395 25.3824 27.761 25.4088 27.761H37.7438V25.4912L25.401 27.5483C25.3777 27.5522 25.3608 27.572 25.3608 27.5956V27.713ZM47.727 60.3277V60.7824H32.2723V60.3277C32.2723 59.9689 32.5024 59.6558 32.8449 59.5489L37.8058 57.9986H42.1937L47.1545 59.5489C47.497 59.6559 47.727 59.9689 47.727 60.3277ZM54.5981 27.5517L42.2555 25.5599V27.7611H54.5905C54.6169 27.7611 54.6385 27.7396 54.6385 27.7131V27.5991C54.6385 27.5754 54.6215 27.5554 54.5981 27.5517ZM53.8226 33.2926L60.3838 47.7274H47.2613L53.8226 33.2926ZM46.9885 49.1673C47.6126 50.9449 50.4889 52.3351 53.8226 52.3351C57.1562 52.3351 60.0325 50.9449 60.6567 49.1673H46.9885Z" fill="white"/>
</svg>
