<?xml version="1.0" encoding="UTF-8"?>
<svg width="160px" height="160px" viewBox="0 0 160 160" version="1.1" xmlns="http://www.w3.org/2000/svg" xmlns:xlink="http://www.w3.org/1999/xlink">
    <title>Group 40</title>
    <defs>
        <circle id="path-1" cx="60" cy="60" r="60"></circle>
        <filter x="-25.0%" y="-21.7%" width="156.7%" height="156.7%" filterUnits="objectBoundingBox" id="filter-2">
            <feOffset dx="4" dy="8" in="SourceAlpha" result="shadowOffsetOuter1"></feOffset>
            <feGaussianBlur stdDeviation="10" in="shadowOffsetOuter1" result="shadowBlurOuter1"></feGaussianBlur>
            <feColorMatrix values="0 0 0 0 0.268393806   0 0 0 0 0.341428607   0 0 0 0 0.473901721  0 0 0 0.15 0" type="matrix" in="shadowBlurOuter1"></feColorMatrix>
        </filter>
    </defs>
    <g id="Desktop_Final" stroke="none" stroke-width="1" fill="none" fill-rule="evenodd">
        <g id="01_Homepage_Jan2021" transform="translate(-1134.000000, -2652.000000)">
            <g id="Group-39" transform="translate(0.000000, 2373.000000)">
                <g id="Group-22" transform="translate(1120.000000, 291.000000)">
                    <g id="Group-40" transform="translate(30.000000, 0.000000)">
                        <g id="Oval">
                            <use fill="black" fill-opacity="1" filter="url(#filter-2)" xlink:href="#path-1"></use>
                            <use fill="#01446F" fill-rule="evenodd" xlink:href="#path-1"></use>
                        </g>
                        <g id="clock" transform="translate(26.666667, 26.666667)" fill="#FFFFFF" fill-rule="nonzero">
                            <path d="M66.5381083,36.5412606 C65.9395316,30.2691924 63.2497777,24.3561832 58.9640363,19.8913464 C55.3014813,16.0759897 50.8186015,13.6241615 46.1016036,12.5339627 L46.1016036,9.08743158 C48.028195,8.58811321 49.4602478,6.77138652 49.4602478,4.6120143 C49.4602478,2.06889535 47.4742804,0 45.033098,0 L35.6579572,0 C33.2167747,0 31.2308074,2.06889535 31.2308074,4.6120143 C31.2308074,6.77125087 32.6628602,8.58797756 34.5893214,9.08743158 L34.5893214,12.5435937 C29.8867768,13.6384045 25.418741,16.0868415 21.7666028,19.891482 C20.9673721,20.7240862 20.2303818,21.5975204 19.5557623,22.5052733 C19.5230796,22.502696 19.4903968,22.5001187 19.4570629,22.5001187 L10.1781476,22.5001187 C9.45912639,22.5001187 8.87604471,23.1074125 8.87604471,23.8565935 C8.87604471,24.6057745 9.45912639,25.2130683 10.1781476,25.2130683 L17.783991,25.2130683 C16.8292891,26.8781411 16.0594859,28.6267727 15.4735396,30.4268148 L1.30210288,30.4268148 C0.58308167,30.4268148 0,31.0341086 0,31.7832896 C0,32.5324706 0.58308167,33.1397644 1.30210288,33.1397644 L14.7377213,33.1397644 C14.3624552,34.8558406 14.1470874,36.6023019 14.0914876,38.3536465 L8.33345844,38.3536465 C7.61443723,38.3536465 7.03135556,38.9609403 7.03135556,39.7101213 C7.03135556,40.4593024 7.61443723,41.0665961 8.33345844,41.0665961 L14.1330247,41.0665961 C14.2429222,42.8224171 14.5138898,44.569014 14.9460577,46.2804783 L6.51051441,46.2804783 C5.7914932,46.2804783 5.20841153,46.8877721 5.20841153,47.6369531 C5.20841153,48.3861341 5.7914932,48.9934279 6.51051441,48.9934279 L15.7770598,48.9934279 C17.0544227,52.5136156 19.0506766,55.8129693 21.7666028,58.6423044 C26.056511,63.1113462 31.7383671,65.9140945 37.7652805,66.5344104 C38.6254497,66.6228525 39.4862699,66.6666667 40.3459182,66.6666667 C45.4269841,66.6666667 50.4434656,65.1347997 54.70004,62.2471361 C55.3026532,61.8382946 55.4730984,60.9979585 55.0806446,60.370182 C54.6881908,59.7424054 53.8815381,59.5648429 53.2789249,59.9736844 C43.9614673,66.29445 31.4830247,64.9278016 23.6080367,56.7239777 C14.3680542,47.0981613 14.3680542,31.4358964 23.6080367,21.8099443 C32.847889,12.1842635 47.8823595,12.1842635 57.1224722,21.8099443 C64.9870434,30.0030521 66.3060736,42.9914339 60.2587172,52.6932129 C59.8670446,53.321532 60.0385316,54.1617325 60.6415354,54.5696245 C61.2449299,54.9776521 62.051192,54.7990043 62.4427343,54.1706852 C65.6737724,48.9869168 67.1282213,42.7261074 66.5381083,36.5412606 Z M33.8350132,4.61214994 C33.8350132,3.5649514 34.6527338,2.71308523 35.6579572,2.71308523 L45.033098,2.71308523 C46.0383214,2.71308523 46.856042,3.5649514 46.856042,4.61214994 C46.856042,5.65934849 46.0383214,6.51121466 45.033098,6.51121466 L44.7995007,6.51121466 L35.8914243,6.51121466 L35.6579572,6.51121466 C34.6527338,6.51121466 33.8350132,5.65921284 33.8350132,4.61214994 Z M37.1935271,12.0772377 L37.1935271,9.22416424 L43.4973978,9.22416424 L43.4973978,12.0723544 C41.4041372,11.8129964 39.2863971,11.8146242 37.1935271,12.0772377 Z" id="XMLID_389_"></path>
                            <path d="M57.6190476,55.721393 C57.2419048,55.721393 56.8747619,55.8810945 56.6091905,56.1587065 C56.3420476,56.4363184 56.1904762,56.821393 56.1904762,57.2139303 C56.1904762,57.6064677 56.3420476,57.9915423 56.6091905,58.2691542 C56.8747619,58.5482587 57.2420476,58.7064677 57.6190476,58.7064677 C57.9947619,58.7064677 58.3619048,58.5482587 58.6290476,58.2691542 C58.8947619,57.9915423 59.047619,57.6064677 59.047619,57.2139303 C59.047619,56.821393 58.8949048,56.4363184 58.6290476,56.1587065 C58.3619048,55.8810945 57.994619,55.721393 57.6190476,55.721393 Z" id="XMLID_391_"></path>
                            <path d="M40.6688689,17.9104478 C29.272072,17.9104478 20,27.284062 20,38.8059701 C20,50.3278783 29.272072,59.7014925 40.6688689,59.7014925 C50.2117787,59.7014925 58.2649889,53.1294087 60.6324662,44.2270502 C62.9999435,35.3246917 61.3377379,40.6802088 61.3377379,38.8059701 C61.3377379,27.284062 52.0656659,17.9104478 40.6688689,17.9104478 Z M40.6688689,57.0075382 C30.7412726,57.0075382 22.6647331,48.8422972 22.6647331,38.8059701 C22.6647331,28.7696431 30.7412726,20.6044021 40.6688689,20.6044021 C50.5964653,20.6044021 58.6730048,28.7696431 58.6730048,38.8059701 C58.6730048,48.8422972 50.5964653,57.0075382 40.6688689,57.0075382 Z" id="XMLID_394_"></path>
                            <path d="M48.2806909,29.2481162 L41.9105494,35.884027 C41.3778394,35.6096354 40.7786372,35.4546201 40.1452241,35.4546201 C39.5116825,35.4546201 38.9126088,35.6096354 38.3798988,35.884027 L35.5289615,32.9140855 C35.0266039,32.3908924 34.2124913,32.3908924 33.7100051,32.9140855 C33.2077761,33.4372786 33.2077761,34.2856419 33.7100051,34.8088351 L36.5609424,37.7787766 C36.2974169,38.333723 36.1487417,38.9579373 36.1487417,39.6177903 C36.1487417,41.913409 37.9414613,43.7810945 40.1452241,43.7810945 C42.348987,43.7810945 44.1417066,41.913409 44.1417066,39.6177903 C44.1417066,38.9579373 43.9929028,38.333723 43.7295058,37.7787766 L49.9126458,31.3375392 L49.9126458,31.3375392 L50.0995187,31.1428658 C50.6017477,30.6196727 50.6017477,29.7713093 50.0995187,29.2481162 C49.5972897,28.7249231 48.7831772,28.7249231 48.2806909,29.2481162 Z M40.1452241,41.1016223 C39.3599206,41.1016223 38.7209773,40.4360081 38.7209773,39.6179243 C38.7209773,38.7998406 39.3599206,38.1342264 40.1452241,38.1342264 C40.9305277,38.1342264 41.569471,38.7998406 41.569471,39.6179243 C41.569471,40.4360081 40.9305277,41.1016223 40.1452241,41.1016223 Z" id="XMLID_397_"></path>
                            <path d="M54.8887424,37.8109453 L53.6826861,37.8109453 C52.9638688,37.8109453 52.3809524,38.4791542 52.3809524,39.3034826 C52.3809524,40.1278109 52.9638688,40.7960199 53.6826861,40.7960199 L54.8887424,40.7960199 C55.6075598,40.7960199 56.1904762,40.1278109 56.1904762,39.3034826 C56.1904762,38.4791542 55.6075598,37.8109453 54.8887424,37.8109453 Z" id="XMLID_398_"></path>
                            <path d="M27.2696503,37.8109453 L26.063683,37.8109453 C25.3448411,37.8109453 24.7619048,38.4791542 24.7619048,39.3034826 C24.7619048,40.1278109 25.3448411,40.7960199 26.063683,40.7960199 L27.2696503,40.7960199 C27.9884923,40.7960199 28.5714286,40.1278109 28.5714286,39.3034826 C28.5714286,38.4791542 27.9884923,37.8109453 27.2696503,37.8109453 Z" id="XMLID_399_"></path>
                            <path d="M40.4761905,27.8606965 C41.2650476,27.8606965 41.9047619,27.2517946 41.9047619,26.5006297 L41.9047619,25.2406638 C41.9047619,24.4894989 41.2650476,23.880597 40.4761905,23.880597 C39.6873333,23.880597 39.047619,24.4894989 39.047619,25.2406638 L39.047619,26.5006297 C39.047619,27.2517946 39.6873333,27.8606965 40.4761905,27.8606965 Z" id="XMLID_400_"></path>
                            <path d="M40.4761905,50.7462687 C39.6873333,50.7462687 39.047619,51.3551706 39.047619,52.1063355 L39.047619,53.3663014 C39.047619,54.1174662 39.6873333,54.7263682 40.4761905,54.7263682 C41.2650476,54.7263682 41.9047619,54.1174662 41.9047619,53.3663014 L41.9047619,52.1063355 C41.9047619,51.3551706 41.2650476,50.7462687 40.4761905,50.7462687 Z" id="XMLID_424_"></path>
                            <path d="M1.42857143,45.7711443 C1.05285714,45.7711443 0.684285714,45.9308458 0.418571429,46.2084577 C0.152857143,46.4860697 0,46.8711443 0,47.2636816 C0,47.6577114 0.152714286,48.0412935 0.418571429,48.3189055 C0.684428571,48.5965174 1.05285714,48.7562189 1.42857143,48.7562189 C1.80428571,48.7562189 2.17285714,48.5965174 2.43842857,48.3189055 C2.70414286,48.0412935 2.85714286,47.6562189 2.85714286,47.2636816 C2.85714286,46.8711443 2.70428571,46.4860697 2.43842857,46.2084577 C2.17285714,45.9308458 1.80428571,45.7711443 1.42857143,45.7711443 Z" id="XMLID_425_"></path>
                        </g>
                    </g>
                </g>
            </g>
        </g>
    </g>
</svg>