<svg width="80" height="80" viewBox="0 0 80 80" fill="none" xmlns="http://www.w3.org/2000/svg">
<circle cx="40" cy="40" r="40" fill="#01446F"/>
<path d="M54.1752 41.5066C53.8313 41.5066 53.5524 41.7831 53.5524 42.1241C53.5524 42.5564 53.1978 42.9081 52.7617 42.9081C52.3258 42.9081 51.971 42.5564 51.971 42.1241C51.971 41.783 51.6922 41.5066 51.3483 41.5066C51.0044 41.5066 50.7256 41.7831 50.7256 42.1241C50.7256 43.2374 51.6391 44.1431 52.7617 44.1431C53.8844 44.1431 54.7979 43.2373 54.7979 42.1241C54.7979 41.7829 54.5191 41.5066 54.1752 41.5066Z" fill="white"/>
<path fill-rule="evenodd" clip-rule="evenodd" d="M60.5056 41.4022L58.6859 40.8072C58.4529 40.7309 58.2692 40.541 58.1947 40.2991C57.8112 39.0544 57.2324 37.8858 56.4745 36.8257C56.1291 36.3426 55.7449 35.8812 55.3253 35.4419C55.5938 34.2397 55.7397 32.8791 55.7208 31.7036C55.6938 30.022 55.3646 29.0357 54.7145 28.6881C54.3644 28.5007 53.2989 27.9313 47.5317 30.6263C47.3951 30.6901 47.2676 30.7687 47.1495 30.8587C46.7607 30.752 46.3633 30.6533 45.9634 30.5648C45.9364 30.5588 45.9089 30.5531 45.8814 30.5475C45.8698 30.5451 45.8582 30.5428 45.8466 30.5404C45.8368 30.5383 45.8269 30.5362 45.8171 30.5341C46.2845 29.4919 46.5574 28.36 46.6086 27.1915C46.6246 26.8273 46.3484 26.5189 45.9916 26.5027C45.6358 26.4846 45.3327 26.7682 45.3168 27.1325C45.2326 29.0538 44.4519 30.8615 43.1186 32.2226C42.322 33.0358 41.3892 33.6266 40.3951 33.9986C38.6711 33.7516 36.9151 33.7516 35.1911 33.9986C34.1969 33.6266 33.2643 33.0358 32.4677 32.2226C31.0452 30.7705 30.2618 28.8399 30.2618 26.7862C30.2618 24.7325 31.0452 22.8019 32.4677 21.3498C33.8901 19.8976 35.7815 19.0979 37.7931 19.0979C39.8047 19.0979 41.6961 19.8976 43.1186 21.3498C43.6902 21.9334 44.1626 22.5993 44.5226 23.3289C44.6832 23.6545 45.072 23.7856 45.3909 23.6215C45.7098 23.4576 45.8381 23.0607 45.6775 22.7352C45.2556 21.8797 44.7023 21.0996 44.033 20.4163C42.3663 18.7149 40.1503 17.7778 37.7932 17.7778C35.4362 17.7778 33.2201 18.7149 31.5534 20.4163C29.8867 22.1179 28.9687 24.38 28.9687 26.7861C28.9687 29.1923 29.8867 31.4545 31.5534 33.156C32.0342 33.6468 32.5572 34.0688 33.1104 34.4224L33.111 34.4223C32.709 34.529 32.31 34.6487 31.9155 34.7834C31.5768 34.8989 31.3941 35.2728 31.5073 35.6186C31.6205 35.9643 31.9869 36.1509 32.3254 36.0354C35.8513 34.8321 39.7351 34.8321 43.261 36.0354C43.329 36.0586 43.3981 36.0696 43.466 36.0696C43.7365 36.0696 43.9886 35.8949 44.0791 35.6186C44.1923 35.2729 44.0096 34.8989 43.6709 34.7834C43.2764 34.6487 42.8775 34.5289 42.4755 34.4223L42.476 34.4224C43.0293 34.0688 43.5522 33.6468 44.033 33.156C44.4584 32.7218 44.8338 32.2476 45.1598 31.7437C45.338 31.7791 45.5149 31.8161 45.6893 31.8547C45.9214 31.9062 46.1526 31.9614 46.3817 32.0194L46.3792 32.0292L46.3792 32.0292C46.3728 32.0546 46.3664 32.0801 46.3611 32.1059C46.0458 33.6334 46.0663 34.9843 46.4219 36.121C46.7416 37.1427 47.3185 37.9705 48.1365 38.5814C49.1005 39.3013 50.2644 39.6123 51.3187 39.6123C52.1122 39.6123 52.8438 39.4361 53.381 39.1254C53.9888 38.774 54.4979 38.0336 54.901 36.922C55.0872 37.144 55.2638 37.3714 55.4302 37.6041C56.105 38.5478 56.6202 39.5879 56.9613 40.6952C57.1617 41.3456 57.659 41.8574 58.2917 42.0644L60.1114 42.6595C60.5889 42.8156 60.9096 43.2643 60.9096 43.7761V46.8563C60.9096 47.3681 60.5889 47.8167 60.1114 47.9729L57.1796 48.9315C56.7105 49.085 56.3135 49.4141 56.0618 49.8582C54.91 51.8903 53.0991 53.5719 50.679 54.8563C50.3994 55.0049 50.2058 55.2705 50.1475 55.5853L49.2085 60.661C49.1825 60.8008 49.0625 60.9022 48.9231 60.9022H45.87C45.7306 60.9022 45.6106 60.8007 45.5846 60.661L45.0645 57.8559C44.9621 57.3039 44.4551 56.9373 43.9093 57.0217C42.5942 57.2248 41.239 57.3276 39.8817 57.3276C38.8719 57.3276 37.875 57.2701 36.9186 57.1566C36.3897 57.0946 35.8971 57.4626 35.7982 57.9956L35.304 60.661C35.2781 60.8008 35.1581 60.9022 35.0186 60.9022H31.9655C31.8261 60.9022 31.7061 60.8007 31.6798 60.6588L30.7757 55.8649C30.7175 55.5561 30.5274 55.2935 30.254 55.1444C26.1287 52.8963 23.9483 49.1403 23.9483 44.2828C23.9483 41.8286 24.4743 39.6584 25.5116 37.8323C26.4796 36.1282 27.8933 34.7192 29.7136 33.6444C30.0227 33.4618 30.1283 33.0581 29.9496 32.7425C29.7708 32.427 29.3753 32.3194 29.0662 32.5016C25.5366 34.586 23.4077 37.8017 22.8216 41.8859V41.8858L22.7839 41.8823L22.7837 41.8823C22.7341 41.8778 22.6845 41.8732 22.635 41.868C22.6463 41.4273 22.5682 40.9827 22.3982 40.5511C22.0231 39.5993 21.2526 38.9123 20.4351 38.801C19.791 38.7129 19.178 38.9921 18.7525 39.5659C18.1357 40.398 18.2363 41.0564 18.4291 41.4623C18.7548 42.1473 19.5918 42.6318 20.9809 42.9364C20.9427 42.9947 20.9007 43.0534 20.8547 43.1123C20.034 44.1631 19.0671 44.3954 18.4392 44.4173C18.0717 44.4299 17.7773 44.7312 17.7773 45.1067V45.1098C17.7773 45.4802 18.0636 45.7822 18.426 45.7991C18.4724 45.8014 18.5209 45.8025 18.5714 45.8025C19.3659 45.8025 20.6409 45.5034 21.8659 43.9353C22.0593 43.6879 22.2169 43.4267 22.338 43.1569C22.46 43.171 22.5773 43.1831 22.6895 43.1937L22.6896 43.193C22.6676 43.5506 22.6553 43.9135 22.6553 44.2828C22.6553 47.0311 23.2972 49.4816 24.5628 51.5664C25.7299 53.4885 27.4008 55.0623 29.5307 56.2458L30.4097 60.9063C30.551 61.6688 31.2054 62.2222 31.9655 62.2222H35.0186C35.7788 62.2222 36.4331 61.6688 36.5745 60.9063L37.0213 58.4963C37.9494 58.5967 38.9103 58.6475 39.8816 58.6475C41.2144 58.6475 42.5456 58.5528 43.8429 58.3657L44.314 60.9065C44.4554 61.6689 45.1097 62.2223 45.8698 62.2223H48.9229C49.6831 62.2223 50.3374 61.6689 50.4788 60.9061L51.3931 55.9644C53.976 54.5701 55.9229 52.7386 57.1809 50.5192C57.2715 50.3593 57.4112 50.2419 57.5739 50.1887L60.5056 49.23C61.5206 48.898 62.2025 47.9441 62.2025 46.8561V43.7759C62.2025 42.688 61.5206 41.7341 60.5056 41.4022ZM54.3307 33.5583C54.0819 35.7307 53.4144 37.589 52.7437 37.9768C51.9813 38.4176 50.2212 38.5027 48.8997 37.5159C47.5767 36.5279 47.1364 34.7513 47.6262 32.378V32.3779C47.6754 32.1396 47.8413 31.9333 48.0699 31.8265C51.3067 30.314 53.1728 29.8193 53.8661 29.8193C53.9707 29.8193 54.0486 29.8306 54.1005 29.8513C54.3088 30.0779 54.5819 31.3658 54.3307 33.5583ZM19.7838 40.3624C19.6836 40.4975 19.5257 40.7451 19.5926 40.8859C19.7435 41.2038 20.4389 41.4767 21.3339 41.666C21.3181 41.3937 21.2506 41.1754 21.1986 41.0436C20.9779 40.4837 20.5615 40.1498 20.2642 40.1093C20.2442 40.1066 20.2225 40.1046 20.1991 40.1046C20.0887 40.1046 19.9425 40.1484 19.7838 40.3624Z" fill="white"/>
<path fill-rule="evenodd" clip-rule="evenodd" d="M38.6299 25.8826V23.5516C39.1249 23.5868 39.4293 23.7383 39.6546 23.8504C39.797 23.9213 39.9078 23.9765 40.0151 23.9765C40.3614 23.9765 40.523 23.5402 40.523 23.322C40.523 22.7592 39.4148 22.5181 38.6299 22.4952V22.185C38.6299 22.0472 38.4567 21.9209 38.2836 21.9209C38.0873 21.9209 37.9488 22.0472 37.9488 22.185V22.518C36.8522 22.6328 35.7556 23.207 35.7556 24.6539C35.7556 26.1238 36.9099 26.5372 37.9488 26.9046V29.6031C37.2115 29.5456 36.8137 29.2089 36.5258 28.9652C36.3539 28.8198 36.2212 28.7074 36.0788 28.7074C35.7902 28.7074 35.5479 29.0864 35.5479 29.362C35.5479 29.9247 36.5175 30.694 37.9488 30.717V31.073C37.9488 31.2108 38.0874 31.3371 38.2836 31.3371C38.4568 31.3371 38.6299 31.2108 38.6299 31.073V30.6826C39.8766 30.5103 40.7308 29.7295 40.7308 28.317C40.7308 26.7554 39.6342 26.25 38.6299 25.8826ZM38.018 25.6645C37.4063 25.4348 36.9099 25.1937 36.9099 24.5392C36.9099 23.942 37.3716 23.6549 38.018 23.5746V25.6645ZM38.5606 27.1572V29.5801C39.1839 29.4654 39.5764 29.0979 39.5764 28.4433C39.5764 27.7199 39.1262 27.3983 38.5606 27.1572Z" fill="white"/>
</svg>
