<?xml version="1.0" encoding="UTF-8"?>
<svg width="160px" height="160px" viewBox="0 0 160 160" version="1.1" xmlns="http://www.w3.org/2000/svg" xmlns:xlink="http://www.w3.org/1999/xlink">
    <title>Group 44</title>
    <defs>
        <circle id="path-1" cx="60" cy="60" r="60"></circle>
        <filter x="-25.0%" y="-21.7%" width="156.7%" height="156.7%" filterUnits="objectBoundingBox" id="filter-2">
            <feOffset dx="4" dy="8" in="SourceAlpha" result="shadowOffsetOuter1"></feOffset>
            <feGaussianBlur stdDeviation="10" in="shadowOffsetOuter1" result="shadowBlurOuter1"></feGaussianBlur>
            <feColorMatrix values="0 0 0 0 0.268393806   0 0 0 0 0.341428607   0 0 0 0 0.473901721  0 0 0 0.15 0" type="matrix" in="shadowBlurOuter1"></feColorMatrix>
        </filter>
    </defs>
    <g id="Desktop_Final" stroke="none" stroke-width="1" fill="none" fill-rule="evenodd">
        <g id="01_Homepage_Jan2021" transform="translate(-889.000000, -2652.000000)">
            <g id="Group-39" transform="translate(0.000000, 2373.000000)">
                <g id="Group-25" transform="translate(875.000000, 291.000000)">
                    <g id="Group-44" transform="translate(30.000000, 0.000000)">
                        <g id="Oval-Copy-3">
                            <use fill="black" fill-opacity="1" filter="url(#filter-2)" xlink:href="#path-1"></use>
                            <use fill="#01446F" fill-rule="evenodd" xlink:href="#path-1"></use>
                        </g>
                        <g id="piggy-bank-copy" transform="translate(26.666667, 26.666667)" fill="#FFFFFF" fill-rule="nonzero">
                            <path d="M54.597329,35.5932203 C54.0814588,35.5932203 53.6632466,36.0079189 53.6632466,36.5194551 C53.6632466,37.167981 53.1312045,37.6955531 52.4771838,37.6955531 C51.8232885,37.6955531 51.291121,37.167981 51.291121,36.5194551 C51.291121,36.0077946 50.8729089,35.5932203 50.3570386,35.5932203 C49.8411684,35.5932203 49.4229562,36.0079189 49.4229562,36.5194551 C49.4229562,38.1894373 50.7931778,39.5480226 52.4771838,39.5480226 C54.1611899,39.5480226 55.5314115,38.189313 55.5314115,36.5194551 C55.5314115,36.0076703 55.1131993,35.5932203 54.597329,35.5932203 Z" id="Path"></path>
                            <path d="M64.0924462,35.4366252 L61.3629038,34.5440498 C61.0133162,34.4296545 60.737785,34.1447957 60.6259846,33.7819461 C60.0507139,31.9148187 59.1826018,30.1619537 58.0457263,28.5718461 C57.5275922,27.847077 56.9514104,27.1549923 56.3219966,26.4961234 C56.7246861,24.6927703 56.9436013,22.6518577 56.9152282,20.8886294 C56.8746209,18.3662203 56.3808251,16.8867879 55.4057283,16.3654324 C54.880566,16.0842938 53.2823025,15.2302487 44.6315065,19.2727464 C44.4266476,19.3684079 44.2353245,19.4862576 44.058188,19.6212467 C43.474978,19.4612793 42.878883,19.3132697 42.2791438,19.1804064 C42.2069096,19.1643299 42.1324628,19.1501136 42.059708,19.1344357 C42.7607053,17.5711665 43.1700325,15.8733069 43.2469522,14.1205747 C43.2709001,13.574241 42.8566271,13.1116111 42.3214431,13.0872971 C41.7876908,13.060193 41.3330708,13.4856212 41.309253,14.0319549 C41.1828757,16.913892 40.0117702,19.6254983 38.0118585,21.6672081 C36.8169353,22.8870257 35.4178041,23.7730908 33.9266555,24.3311165 C31.3406705,23.9606937 28.7066595,23.9606937 26.1206744,24.3311165 C24.6293957,23.7730908 23.2303946,22.8870257 22.0354714,21.6672081 C19.9017637,19.4890477 18.7266236,16.5930272 18.7266236,13.5125924 C18.7266236,10.4320248 19.9017637,7.53613715 22.0354714,5.35797681 C24.1691792,3.17968361 27.0062269,1.98006121 30.023665,1.98006121 C33.0411031,1.98006121 35.8781508,3.17968361 38.0118585,5.35797681 C38.8692982,6.23327999 39.5778443,7.232146 40.1178439,8.3265407 C40.3587548,8.81494605 40.9419648,9.01158368 41.4202724,8.76552092 C41.8987103,8.51972388 42.0912047,7.9243636 41.8502938,7.43609111 C41.2173659,6.15276485 40.3873882,4.98263809 39.3835278,3.95773088 C36.8834429,1.40556046 33.5593673,0 30.0237951,0 C26.488223,0 23.1641474,1.40556046 20.6640625,3.95773088 C18.1639776,6.51003417 16.7871023,9.90322904 16.7871023,13.5124596 C16.7871023,17.1216901 18.1639776,20.5150179 20.6640625,23.0671883 C21.3852333,23.8033836 22.169788,24.4364771 22.9996356,24.9668672 C22.9998959,24.9668672 23.0001562,24.9667344 23.0004165,24.9667344 C22.3974234,25.1267017 21.7989857,25.3063329 21.2071857,25.508285 C20.6992035,25.6816716 20.4251039,26.2424874 20.5949519,26.7611856 C20.7646698,27.2797509 21.3143006,27.5595609 21.8221527,27.3863072 C27.1109991,25.5813598 32.9365912,25.5813598 38.2254375,27.3863072 C38.3274765,27.4211174 38.4310773,27.4375925 38.5329861,27.4375925 C38.9386691,27.4375925 39.3168901,27.1755861 39.4526383,26.7611856 C39.6224864,26.2426203 39.3483868,25.6816716 38.8404045,25.508285 C38.2486045,25.3063329 37.6501668,25.1265689 37.0471738,24.9667344 C37.0474341,24.9667344 37.0476944,24.9668672 37.0479547,24.9668672 C37.8779324,24.4364771 38.6623569,23.8033836 39.3835278,23.0671883 C40.0215316,22.4158926 40.5846982,21.7046755 41.0736783,20.9488164 C41.34101,21.0018289 41.6063894,21.0573657 41.8678643,21.1152941 C42.2161504,21.1924876 42.5628746,21.2753943 42.9064752,21.3624198 C42.8956726,21.4054675 42.8846097,21.4483823 42.8756293,21.4920943 C42.4026578,23.7833213 42.4333736,25.8097518 42.9668656,27.514786 C43.4463447,29.0473638 44.3117236,30.288971 45.5386641,31.2053289 C46.9847802,32.2852415 48.7306357,32.7517244 50.3121095,32.7517244 C51.5023473,32.7517244 52.5996566,32.4873265 53.4055562,32.021375 C54.3171391,31.4943065 55.0808695,30.3837025 55.6854244,28.7162685 C55.9648602,29.0492238 56.229719,29.3902838 56.47935,29.7394485 C57.4915401,31.1549737 58.2642511,32.7150541 58.7760077,34.3761107 C59.0765281,35.3517256 59.8225579,36.1194095 60.7714943,36.429911 L63.5010367,37.3224864 C64.2172617,37.5567243 64.6984327,38.2296767 64.6984327,38.9973607 L64.6984327,43.6176806 C64.6984327,44.3853646 64.2172617,45.058317 63.5010367,45.2925549 L59.1033394,46.730534 C58.399739,46.9607861 57.8042948,47.4543731 57.4267246,48.1205495 C55.6989601,51.1686985 52.9825631,53.6911075 49.3525007,55.6177577 C48.9331518,55.8405694 48.6426531,56.2390263 48.5551911,56.7112224 L47.1466889,64.3246859 C47.1077736,64.534477 46.9277737,64.6866055 46.7186198,64.6866055 L42.1389704,64.6866055 C41.9298165,64.6866055 41.7498167,64.5343442 41.7109013,64.3246859 L40.9307717,60.1170392 C40.7771927,59.2891683 40.0165859,58.7392472 39.1979314,58.8658659 C37.2252214,59.1703885 35.1925114,59.3246427 33.1565477,59.3246427 C31.6418416,59.3246427 30.1465282,59.2384145 28.7118655,59.0682166 C27.9185906,58.9750795 27.179589,59.5271264 27.0313462,60.3266975 L26.2900019,64.3246859 C26.2510865,64.534477 26.0710866,64.6866055 25.8619328,64.6866055 L21.2822833,64.6866055 C21.0731294,64.6866055 20.8931296,64.5343442 20.8536936,64.3214972 L19.4975124,57.1306717 C19.4101806,56.6673775 19.1251483,56.2734379 18.7150401,56.049829 C12.5271055,52.6776266 9.25639215,47.0436927 9.25639215,39.7574714 C9.25639215,36.0760961 10.045372,32.8208133 11.6013361,30.0817043 C13.053309,27.5255479 15.1740016,25.412092 17.904455,23.7997963 C18.3680556,23.5259651 18.5264502,22.9203744 18.2583376,22.4469826 C17.990225,21.9737236 17.3969934,21.8122948 16.9332627,22.0857274 C11.6388199,25.2122657 8.44554677,30.0357336 7.56637173,36.1620586 L7.56637173,36.1619258 C7.47305293,36.1532897 7.37960398,36.1450521 7.28654548,36.1352203 C7.30346521,35.4742255 7.18632863,34.8072519 6.93123121,34.1599421 C6.36858522,32.7321935 5.21283772,31.701706 3.98667812,31.5346969 C3.02043156,31.4026308 2.10090948,31.8214158 1.46277547,32.682104 C0.537526709,33.9302215 0.688372583,34.917927 0.977699913,35.5267065 C1.46615941,36.5541381 2.7217333,37.2809002 4.8053326,37.7378169 C4.74806583,37.8253738 4.68507239,37.9133293 4.61609196,38.0016834 C3.3849866,39.5778403 1.93457555,39.9263406 0.992797516,39.9591578 C0.441474721,39.9781573 0,40.4300252 0,40.9932326 L0,40.9980157 C0,41.553517 0.429370609,42.0065807 0.97301445,42.0319576 C1.04264563,42.0352792 1.11540046,42.0370064 1.19114878,42.0370064 C2.38281816,42.0370064 4.29539806,41.5883272 6.13288041,39.2362488 C6.42298865,38.8650289 6.65934422,38.473348 6.84103605,38.0686465 C7.02402941,38.0897717 7.19986442,38.1078411 7.36828077,38.1237847 C7.36828077,38.1233861 7.36828077,38.1231204 7.36841093,38.1227218 C7.33535238,38.6592237 7.31700099,39.2035645 7.31700099,39.7574714 C7.31700099,43.8799527 8.27973345,47.5556149 10.178257,50.6828175 C11.9287979,53.5659503 14.4351301,55.9266648 17.6300952,57.7019837 L18.9485323,64.6927172 C19.1605495,65.8364041 20.1420238,66.6666667 21.2822833,66.6666667 L25.8619328,66.6666667 C27.0021922,66.6666667 27.9836665,65.8364041 28.1956837,64.6927172 L28.8659652,61.0777735 C30.2580683,61.2283076 31.6993687,61.3045711 33.1564175,61.3045711 C35.1555483,61.3045711 37.1523364,61.1624074 39.0983653,60.8818002 L39.8049591,64.6929829 C40.0171065,65.8366699 40.9985808,66.6666667 42.1387101,66.6666667 L46.7183595,66.6666667 C47.858619,66.6666667 48.8400933,65.836537 49.0522406,64.6924514 L50.4236496,57.2798771 C54.2980068,55.1884765 57.2183516,52.4411299 59.1052916,49.112108 C59.2413002,48.872157 59.4507144,48.6961132 59.694879,48.6162623 L64.0924462,47.1782832 C65.6148312,46.6801789 66.6376938,45.2493744 66.6376938,43.6174149 L66.6376938,38.9970949 C66.6376938,37.3652683 65.6148312,35.9344639 64.0924462,35.4366252 Z M54.8300671,23.6706532 C54.4567919,26.9292576 53.4555345,29.7167289 52.4494615,30.2984042 C51.3059483,30.9596647 48.6658201,31.0873463 46.683609,29.6071167 C44.6990552,28.1251599 44.0385351,25.4601885 44.7732417,21.9002502 C44.7732417,21.9001174 44.7732417,21.9001174 44.7732417,21.9001174 C44.8470377,21.5425823 45.0958879,21.2332767 45.4388377,21.0730436 C50.2940185,18.8042705 53.093192,18.0622292 54.1331045,18.0622292 C54.2900675,18.0622292 54.4069438,18.0791028 54.4847745,18.1101928 C54.7971387,18.450057 55.2068564,20.3820217 54.8300671,23.6706532 Z M2.72290467,34.6621653 C2.62255767,34.4509127 2.85943385,34.0795599 3.00962897,33.8768105 C3.24767651,33.5558129 3.4669822,33.4901784 3.63266537,33.4901784 C3.66767619,33.4901784 3.70034428,33.4931014 3.73027918,33.4972202 C4.17617906,33.5579387 4.80090744,34.0588332 5.13188333,34.8986619 C5.20984423,35.0963624 5.31110228,35.4238703 5.3347899,35.832292 C3.99227465,35.5483632 2.94923856,35.1390115 2.72290467,34.6621653 Z" id="Shape"></path>
                            <path d="M31.2781946,12.1571915 L31.2781946,8.66076891 C32.4902256,8.74692063 32.9405027,9.29805566 33.3559808,9.29805566 C33.8754603,9.29805566 34.1178665,8.64359101 34.1178665,8.31629312 C34.1178665,7.472216 32.4555585,7.11056233 31.2781946,7.07607541 L31.2781946,6.61082986 C31.2781946,6.40417061 31.018389,6.21468927 30.7587151,6.21468927 C30.4642423,6.21468927 30.2565033,6.40417061 30.2565033,6.61082986 L30.2565033,7.11030007 C28.6115947,7.28260352 26.9666861,8.14385854 26.9666861,10.314174 C26.9666861,12.5189763 28.6981966,13.1390852 30.2565033,13.6902202 L30.2565033,17.7380401 C28.4903257,17.6002236 28.0229128,16.3944928 27.4514985,16.3944928 C27.0186209,16.3944928 26.6550775,16.9629368 26.6550775,17.3763864 C26.6550775,18.2203324 28.1095147,19.3743984 30.2565033,19.4088853 L30.2565033,19.4088853 L30.2565033,19.9428425 C30.2565033,20.1495017 30.4643742,20.3389831 30.7587151,20.3389831 C31.0185208,20.3389831 31.2781946,20.1495017 31.2781946,19.9428425 L31.2781946,19.3572205 C33.1482417,19.0987653 34.4294751,17.9275215 34.4294751,15.8088708 C34.4294751,13.4663831 32.7845665,12.7083265 31.2781946,12.1571915 Z M30.3603728,11.8300248 C29.4426828,11.485549 28.6981966,11.1238953 28.6981966,10.1421328 C28.6981966,9.24639085 29.390748,8.81576334 30.3603728,8.69525582 L30.3603728,11.8300248 L30.3603728,11.8300248 Z M31.1741933,17.7035532 L31.1741933,14.0691829 C32.022549,14.4308366 32.6978328,14.9131289 32.6978328,15.9982211 C32.6978328,16.9802458 32.1091509,17.5313809 31.1741933,17.7035532 Z" id="Shape"></path>
                        </g>
                    </g>
                </g>
            </g>
        </g>
    </g>
</svg>