<?xml version="1.0" encoding="UTF-8"?>
<svg width="80px" height="72px" viewBox="0 0 80 72" version="1.1" xmlns="http://www.w3.org/2000/svg" xmlns:xlink="http://www.w3.org/1999/xlink">
    <title>Path</title>
    <g id="Desktop_Final" stroke="none" stroke-width="1" fill="none" fill-rule="evenodd">
        <g id="08_AboutUs_Jan2021" transform="translate(-1010.000000, -2939.000000)" fill="#D75A4A" fill-rule="nonzero">
            <g id="Group-16" transform="translate(0.000000, 2365.000000)">
                <g id="Group-15" transform="translate(810.000000, 574.000000)">
                    <path d="M239.760795,12.7189565 C242.98966,5.23252174 250.365806,0.00156521739 258.945177,0.00156521739 C270.502207,0.00156521739 278.825573,9.67304348 279.871994,21.1993043 C279.871994,21.1993043 280.436805,24.0605217 279.19358,29.2116522 C277.500747,36.2269565 273.521468,42.4596522 268.156561,47.2163478 L239.760795,72 L211.843439,47.2147826 C206.478532,42.4596522 202.499253,36.2253913 200.80642,29.210087 C199.563195,24.0589565 200.128006,21.1977391 200.128006,21.1977391 C201.174427,9.67147826 209.497793,0 221.054823,0 C229.635794,0 236.531931,5.23252174 239.760795,12.7189565 Z" id="Path"></path>
                </g>
            </g>
        </g>
    </g>
</svg>