<?xml version="1.0" encoding="UTF-8"?>
<svg width="80px" height="80px" viewBox="0 0 80 80" version="1.1" xmlns="http://www.w3.org/2000/svg" xmlns:xlink="http://www.w3.org/1999/xlink">
    <title>Shape</title>
    <g id="Desktop_Final" stroke="none" stroke-width="1" fill="none" fill-rule="evenodd">
        <g id="08_AboutUs_Jan2021" transform="translate(-351.000000, -2586.000000)" fill="#01446F" fill-rule="nonzero">
            <g id="Group-16" transform="translate(0.000000, 2365.000000)">
                <g id="Group-2" transform="translate(150.000000, 221.000000)">
                    <path d="M280.603137,20.8211548 L266.797493,0.689243577 C266.496988,0.25096791 266.064914,0 265.611149,0 L216.38901,0 C215.935244,0 215.50317,0.25096791 215.202665,0.689243577 L201.396863,20.8211548 C200.984579,21.4224575 200.884042,22.2792171 201.139898,23.0109008 C201.236319,23.2867614 201.376914,23.5250789 201.547907,23.7154473 C201.551232,23.7201402 201.553765,23.7254452 201.55709,23.7303421 L239.815555,79.313613 C240.11606,79.7502563 240.547185,80 241,80 C241.452815,80 241.88394,79.7500523 242.184445,79.313613 L280.44291,23.7303421 C280.446235,23.7256492 280.448927,23.7203442 280.452093,23.7154473 C280.622928,23.5250789 280.763522,23.2865574 280.860102,23.0109008 C281.115958,22.2792171 281.015421,21.4224575 280.603137,20.8211548 Z M262.803693,4.08057498 L255.767481,18.6987416 L244.491428,4.08057498 L262.803693,4.08057498 Z M252.408097,20.1319112 L229.591903,20.1319112 L241,5.34255589 L252.408097,20.1319112 Z M237.508572,4.08077902 L226.232519,18.6989456 L219.196307,4.08077902 L237.508572,4.08077902 Z M216.143286,5.47967007 L223.195965,20.1319112 L206.095376,20.1319112 L216.143286,5.47967007 Z M206.121975,24.2126902 L224.83275,24.2126902 L237.757937,70.1747084 L206.121975,24.2126902 Z M244.300802,70.0894201 L253.331461,38.5915191 C253.634499,37.5343933 253.215249,36.3609653 252.395115,35.9704348 C251.574505,35.5794961 250.664125,36.1199953 250.361245,37.1771211 L241.014408,69.7778526 L228.200841,24.2126902 L275.878025,24.2126902 L244.300802,70.0894201 Z M258.804035,20.1319112 L265.856714,5.47967007 L275.904624,20.1319112 L258.804035,20.1319112 Z" id="Shape"></path>
                </g>
            </g>
        </g>
    </g>
</svg>