<?xml version="1.0" encoding="UTF-8"?>
<svg width="80px" height="80px" viewBox="0 0 80 80" version="1.1" xmlns="http://www.w3.org/2000/svg" xmlns:xlink="http://www.w3.org/1999/xlink">
    <title>004-goal</title>
    <g id="Desktop_Final" stroke="none" stroke-width="1" fill="none" fill-rule="evenodd">
        <g id="08_AboutUs_Jan2021" transform="translate(-1010.000000, -2586.000000)" fill="#01446F" fill-rule="nonzero">
            <g id="Group-16" transform="translate(0.000000, 2365.000000)">
                <g id="Group-4" transform="translate(810.000000, 221.000000)">
                    <g id="Group-13-Copy">
                        <g id="004-goal" transform="translate(200.000000, 0.000000)">
                            <path d="M16.0841306,20.7492211 C11.6753328,20.7492211 8.10160146,17.2450531 8.10160146,12.9232122 C8.10160146,8.60086131 11.6753328,5.09771296 16.0841306,5.09771296 C20.4924085,5.09771296 24.0661398,8.60086131 24.0661398,12.9232122 C24.06198,17.2430141 20.4903287,20.7446332 16.0841306,20.7492211 Z M16.0841306,7.70621265 C13.1447587,7.70621265 10.7622711,10.0414749 10.7622711,12.9232122 C10.7622711,15.8044395 13.1447587,18.1407213 16.0841306,18.1407213 C19.0229825,18.1407213 21.4054701,15.8044395 21.4054701,12.9232122 C21.4054701,10.0414749 19.0229825,7.70621265 16.0841306,7.70621265 Z" id="Shape"></path>
                            <path d="M48.0132072,57.2697465 L48.0132072,65.0957554 L33.3792638,65.0957554 L33.3792638,47.1992145 L25.3967346,44.5902051 L25.3967346,31.1837297 L37.3700084,31.1837297 C41.0420133,31.1791418 44.0177829,28.2617207 44.0224626,24.6622256 L44.0224626,22.0537259 L6.77100672,22.0537259 C3.09900166,22.0572942 0.12375208,24.9747153 0.119072346,28.57523 L0.119072346,42.9222334 C0.119072346,45.083154 1.90619794,46.8352379 4.11033691,46.8352379 L6.77100672,46.8352379 L6.77100672,70.3127548 L0.119072346,70.3127548 L0.119072346,79.4432685 L2.7802621,79.4432685 L2.7802621,72.9212546 L21.4054701,72.9212546 L21.4054701,79.4432685 L24.0661398,79.4432685 L24.0661398,67.7042551 L48.0132072,67.7042551 L48.0132072,79.4432685 L50.6743968,79.4432685 L50.6743968,59.8782462 L77.2821339,59.8782462 L77.2821339,79.4432685 L79.9428036,79.4432685 L79.9428036,57.2697465 L48.0132072,57.2697465 Z M6.77100672,29.879225 L6.77100672,44.2267382 L4.11033691,44.2267382 C3.37562396,44.2267382 2.7802621,43.6425402 2.7802621,42.9222334 L2.7802621,28.57523 C2.7802621,26.41329 4.56686775,24.6622256 6.77100672,24.6622256 L41.3612728,24.6622256 C41.3612728,26.823146 39.5741472,28.57523 37.3700084,28.57523 L22.736065,28.57523 L22.736065,46.4712611 L30.718074,49.0797609 L30.718074,65.0957554 L26.7273294,65.0957554 L26.7273294,51.1484128 L13.422941,46.2571572 L13.422941,70.3127548 L9.43219634,70.3127548 L9.43219634,29.879225 L6.77100672,29.879225 Z M21.4054701,65.0957554 L21.4054701,70.3127548 L16.0841306,70.3127548 L16.0841306,50.0218183 L24.0661398,52.9560617 L24.0661398,65.0957554 L21.4054701,65.0957554 Z" id="Shape"></path>
                            <path d="M58.656406,53.356742 L69.2996048,53.356742 L69.2996048,20.7492211 L77.0029118,20.7492211 L63.9782654,0 L50.9536189,20.7492211 L58.656406,20.7492211 L58.656406,53.356742 Z M55.7165141,18.1407213 L63.9782654,4.9768972 L72.2400166,18.1407213 L66.6389351,18.1407213 L66.6389351,50.7482423 L61.3175957,50.7482423 L61.3175957,18.1407213 L55.7165141,18.1407213 Z" id="Shape"></path>
                        </g>
                    </g>
                </g>
            </g>
        </g>
    </g>
</svg>