<?xml version="1.0" encoding="UTF-8"?>
<svg width="80px" height="80px" viewBox="0 0 80 80" version="1.1" xmlns="http://www.w3.org/2000/svg" xmlns:xlink="http://www.w3.org/1999/xlink">
    <title>003-adaptation</title>
    <g id="Desktop_Final" stroke="none" stroke-width="1" fill="none" fill-rule="evenodd">
        <g id="08_AboutUs_Jan2021" transform="translate(-350.000000, -2939.000000)" fill="#01446F" fill-rule="nonzero">
            <g id="Group-16" transform="translate(0.000000, 2365.000000)">
                <g id="Group-6" transform="translate(150.000000, 574.000000)">
                    <g id="Group-13">
                        <g id="003-adaptation" transform="translate(200.000000, 0.000000)">
                            <path d="M39.3650794,22.5 C45.6673016,22.5 50.7936508,17.4525 50.7936508,11.25 C50.7936508,5.0475 45.6673016,0 39.3650794,0 C33.0628571,0 27.9365079,5.0475 27.9365079,11.25 C27.9365079,17.4525 33.0628571,22.5 39.3650794,22.5 Z M39.3650794,2.5 C44.2653968,2.5 48.2539683,6.425 48.2539683,11.25 C48.2539683,16.075 44.2653968,20 39.3650794,20 C34.4647619,20 30.4761905,16.075 30.4761905,11.25 C30.4761905,6.425 34.4647619,2.5 39.3650794,2.5 Z" id="Shape"></path>
                            <path d="M25.2228571,64.38125 C25.4514286,63.9975 25.4552381,63.52375 25.2330159,63.1375 L13.8044444,43.1375 C13.3549206,42.35 12.0406349,42.35 11.592381,43.1375 L0.163809524,63.1375 C-0.0584126984,63.525 -0.0546031746,63.9975 0.173968254,64.38125 C0.402539683,64.765 0.819047619,65 1.26984127,65 L24.1269841,65 C24.5790476,65 24.9955556,64.765 25.2228571,64.38125 Z M3.44126984,62.5 L12.6984127,46.3 L21.9555556,62.5 L3.44126984,62.5 Z" id="Shape"></path>
                            <path d="M80,43.75 C80,43.06 79.4311111,42.5 78.7301587,42.5 L58.4126984,42.5 C57.711746,42.5 57.1428571,43.06 57.1428571,43.75 L57.1428571,63.75 C57.1428571,64.44 57.711746,65 58.4126984,65 L78.7301587,65 C79.4311111,65 80,64.44 80,63.75 L80,43.75 Z M77.4603175,62.5 L59.6825397,62.5 L59.6825397,45 L77.4603175,45 L77.4603175,62.5 Z" id="Shape"></path>
                            <path d="M39.3650794,71.25 C33.4692063,71.25 27.7511111,69.59 22.8253968,66.45125 L21.4438095,68.55 C26.7822222,71.9525 32.9790476,73.75 39.3650794,73.75 C45.9936508,73.75 52.3873016,71.82375 57.8552381,68.17875 L56.431746,66.10875 C51.3853968,69.4725 45.4844444,71.25 39.3650794,71.25 Z" id="Path"></path>
                            <path d="M69.8184127,40.04875 L72.3555556,39.95125 C71.8793651,28.01625 64.8038095,17.32875 53.8920635,12.0575 L52.7733333,14.3025 C62.8457143,19.1675 69.3777778,29.03375 69.8184127,40.04875 Z" id="Path"></path>
                            <path d="M8.98539683,43.65125 C8.92190476,42.8625 8.88888889,42.055 8.88888889,41.25 C8.88888889,29.71375 15.4285714,19.3875 25.9555556,14.3025 L24.8380952,12.0575 C13.4336508,17.5675 6.34920635,28.7525 6.34920635,41.25 C6.34920635,42.12125 6.38349206,42.995 6.45333333,43.85 L8.98539683,43.65125 Z" id="Path"></path>
                            <path d="M20.6895238,9.11625 L22.4850794,10.88375 L26.2946032,7.13375 C26.7911111,6.645 26.7911111,5.855 26.2946032,5.36625 L22.4850794,1.61625 L20.6895238,3.38375 L22.3314286,5 L13.968254,5 L13.968254,7.5 L22.3314286,7.5 L20.6895238,9.11625 Z" id="Path"></path>
                            <path d="M74.9206349,28.75 C75.2457143,28.75 75.5707937,28.6275 75.8184127,28.38375 L79.6279365,24.63375 L77.832381,22.86625 L76.1904762,24.4825 L76.1904762,16.25 L73.6507937,16.25 L73.6507937,24.4825 L72.0088889,22.86625 L70.2133333,24.63375 L74.0228571,28.38375 C74.2704762,28.6275 74.5955556,28.75 74.9206349,28.75 Z" id="Path"></path>
                            <path d="M11.8006349,67.86625 L7.99111111,71.61625 L9.78666667,73.38375 L11.4285714,71.7675 L11.4285714,80 L13.968254,80 L13.968254,71.7675 L15.6101587,73.38375 L17.4057143,71.61625 L13.5961905,67.86625 C13.1009524,67.3775 12.2971429,67.3775 11.8006349,67.86625 Z" id="Path"></path>
                            <path d="M50.7936508,40 C50.7936508,35.99625 48.6044444,32.2625 45.0806349,30.25625 L43.808254,32.42 C46.5498413,33.98125 48.2539683,36.885 48.2539683,40 C48.2539683,44.07625 45.4019048,47.50125 41.5631746,48.46875 L43.0412698,45.56 L40.7695238,44.44125 L38.2298413,49.44125 C37.9860317,49.9225 38.0812698,50.50375 38.4685714,50.88375 L42.2780952,54.63375 L44.0736508,52.86625 L42.0901587,50.91375 C47.0780952,49.70625 50.7936508,45.2775 50.7936508,40 Z" id="Path"></path>
                            <path d="M33.6533333,49.74625 L34.9231746,47.5825 C32.1803175,46.02125 30.4761905,43.11625 30.4761905,40 C30.4761905,35.92375 33.328254,32.49875 37.1669841,31.53125 L35.6888889,34.44 L37.9606349,35.55875 L40.5003175,30.55875 C40.744127,30.0775 40.6488889,29.49625 40.2615873,29.11625 L36.4520635,25.36625 L34.6565079,27.13375 L36.64,29.08625 C31.6533333,30.29375 27.9365079,34.7225 27.9365079,40 C27.9365079,44.00625 30.1269841,47.74 33.6533333,49.74625 Z" id="Path"></path>
                        </g>
                    </g>
                </g>
            </g>
        </g>
    </g>
</svg>