<?xml version="1.0" encoding="UTF-8"?>
<svg width="132px" height="132px" viewBox="0 0 132 132" version="1.1" xmlns="http://www.w3.org/2000/svg" xmlns:xlink="http://www.w3.org/1999/xlink">
    <title>Group 46</title>
    <defs>
        <circle id="path-1" cx="45" cy="45" r="45"></circle>
        <filter x="-34.4%" y="-30.0%" width="177.8%" height="177.8%" filterUnits="objectBoundingBox" id="filter-2">
            <feMorphology radius="1" operator="dilate" in="SourceAlpha" result="shadowSpreadOuter1"></feMorphology>
            <feOffset dx="4" dy="8" in="shadowSpreadOuter1" result="shadowOffsetOuter1"></feOffset>
            <feGaussianBlur stdDeviation="10" in="shadowOffsetOuter1" result="shadowBlurOuter1"></feGaussianBlur>
            <feComposite in="shadowBlurOuter1" in2="SourceAlpha" operator="out" result="shadowBlurOuter1"></feComposite>
            <feColorMatrix values="0 0 0 0 0.268393806   0 0 0 0 0.341428607   0 0 0 0 0.473901721  0 0 0 0.15 0" type="matrix" in="shadowBlurOuter1"></feColorMatrix>
        </filter>
    </defs>
    <g id="Desktop_Final" stroke="none" stroke-width="1" fill="none" fill-rule="evenodd">
        <g id="01_Homepage_Jan2021" transform="translate(-238.000000, -3858.000000)">
            <g id="Group-27-Copy" transform="translate(0.000000, 3584.000000)">
                <g id="Group-30" transform="translate(210.000000, 287.000000)">
                    <g id="Group-47-Copy">
                        <g id="Group-46" transform="translate(45.000000, 0.000000)">
                            <g id="Oval">
                                <use fill="black" fill-opacity="1" filter="url(#filter-2)" xlink:href="#path-1"></use>
                                <use stroke="#01446F" stroke-width="2" fill="#F7F8FA" fill-rule="evenodd" xlink:href="#path-1"></use>
                            </g>
                            <g id="013-tractor-1" transform="translate(20.000000, 20.000000)" fill="#01446F" fill-rule="nonzero">
                                <path d="M13.1833984,26.6666667 C9.14492187,26.6666667 5.85927734,30.4048889 5.85927734,34.9998889 C5.85927734,39.5947778 9.14482422,43.3331111 13.1833984,43.3331111 C17.221875,43.3331111 20.5075195,39.5948889 20.5075195,34.9998889 C20.5075195,30.4048889 17.221875,26.6666667 13.1833984,26.6666667 Z M13.1833984,39.9996667 C10.7602539,39.9996667 8.78896484,37.7566667 8.78896484,34.9997778 C8.78896484,32.2428889 10.7603516,29.9998889 13.1833984,29.9998889 C15.6064453,29.9998889 17.577832,32.2428889 17.577832,34.9997778 C17.577832,37.7566667 15.6064453,39.9996667 13.1833984,39.9996667 Z" id="Shape"></path>
                                <path d="M47.6474609,35.5553333 L49.8916992,26.0877778 C49.9000977,26.0523333 49.9075195,26.0166667 49.9137695,25.9806667 C50.1730469,24.506 49.8411133,22.9932222 49.003125,21.8303333 C48.1651367,20.6673333 46.9263672,20.0001111 45.6046875,20.0001111 L38.2805664,20.0001111 L38.2805664,11.6668889 C38.2805664,10.7478889 38.9376953,10.0002222 39.7454102,10.0002222 C40.5543945,10.0002222 41.2102539,9.254 41.2102539,8.33355556 C41.2102539,7.41311111 40.5543945,6.66688889 39.7454102,6.66688889 C37.3222656,6.66688889 35.3509766,8.90988889 35.3509766,11.6667778 L35.3509766,20 L31.9048828,20 L29.2526367,7.92933333 C29.1820312,7.608 29.1753906,7.69733333 27.2719727,3.33366667 L27.831543,3.33366667 C28.6405273,3.33366667 29.2963867,2.58744444 29.2963867,1.667 C29.2963867,0.746555556 28.6405273,0.000333333333 27.831543,0.000333333333 C25.7958008,0.000333333333 12.7355469,0.000333333333 9.99941406,0.000333333333 C7.71152344,0.000333333333 5.83017578,1.95522222 5.62304688,4.54755556 L4.05361328,24.1895556 C1.55664062,26.9205556 0,30.7571111 0,34.9997778 C0,43.2706667 5.9140625,49.9996667 13.1833984,49.9996667 C18.9125,49.9996667 23.7988281,45.8085556 25.6126953,39.9886667 L35.4983398,39.9886667 C35.4018555,40.5273333 35.3509766,41.0957778 35.3509766,41.6664444 C35.3509766,46.2613333 38.6365234,49.9996667 42.6750977,49.9996667 C46.7136719,49.9996667 49.9992187,46.2614444 49.9992187,41.6664444 C49.9991211,39.2537778 49.0923828,37.0784444 47.6474609,35.5553333 Z M28.8850586,20.0001111 L23.4371094,20.0001111 L23.4371094,10.0003333 L26.687793,10.0003333 L28.8850586,20.0001111 Z M8.540625,4.84944444 C8.60966797,3.98533333 9.23681641,3.33366667 9.99941406,3.33366667 C11.7873047,3.33366667 22.5571289,3.33366667 23.9964844,3.33366667 L25.4613281,6.66688889 L13.1833984,6.66688889 C12.3744141,6.66688889 11.7185547,7.41311111 11.7185547,8.33355556 L11.7185547,20.0931111 C10.1075195,20.2966667 8.58300781,20.831 7.19941406,21.6363333 L8.540625,4.84944444 Z M20.5074219,10.0002222 L20.5074219,20 L14.6481445,20 L14.6481445,10.0002222 L20.5074219,10.0002222 Z M13.1833984,46.6662222 C7.52949219,46.6662222 2.9296875,41.4326667 2.9296875,34.9997778 C2.9296875,28.5668889 7.52949219,23.3333333 13.1833984,23.3333333 C18.8373047,23.3333333 23.4371094,28.5668889 23.4371094,34.9997778 C23.4371094,41.4326667 18.8373047,46.6662222 13.1833984,46.6662222 Z M36.8197266,36.6664444 L26.2848633,36.6664444 C26.3382813,36.119 26.3666992,35.5631111 26.3666992,34.9997778 C26.3666992,30.2924444 24.4503906,26.0853333 21.4594727,23.3333333 C24.3958008,23.3333333 43.0023437,23.3333333 45.6046875,23.3333333 C46.0453125,23.3333333 46.4582031,23.5556667 46.7375,23.9433333 C47.0083008,24.3192222 47.1206055,24.8046667 47.0484375,25.2818889 L46.7202148,26.6666667 L30.7612305,26.6666667 C29.9522461,26.6666667 29.2963867,27.4128889 29.2963867,28.3333333 C29.2963867,29.2537778 29.9522461,30 30.7612305,30 L45.9300781,30 L45.0341797,33.7793333 C44.2933594,33.4916667 43.5003906,33.3332222 42.675,33.3332222 C40.284082,33.3332222 38.1573242,34.6437778 36.8197266,36.6664444 Z M42.675,46.6662222 C40.2518555,46.6662222 38.2805664,44.4232222 38.2805664,41.6663333 C38.2805664,38.9094444 40.2519531,36.6664444 42.675,36.6664444 C45.0981445,36.6664444 47.0694336,38.9094444 47.0694336,41.6663333 C47.0694336,44.4232222 45.0981445,46.6662222 42.675,46.6662222 Z" id="Shape"></path>
                            </g>
                        </g>
                    </g>
                </g>
            </g>
        </g>
    </g>
</svg>