<?xml version="1.0" encoding="UTF-8"?>
<svg width="132px" height="132px" viewBox="0 0 132 132" version="1.1" xmlns="http://www.w3.org/2000/svg" xmlns:xlink="http://www.w3.org/1999/xlink">
    <title>Group 46</title>
    <defs>
        <circle id="path-1" cx="45" cy="45" r="45"></circle>
        <filter x="-34.4%" y="-30.0%" width="177.8%" height="177.8%" filterUnits="objectBoundingBox" id="filter-2">
            <feMorphology radius="1" operator="dilate" in="SourceAlpha" result="shadowSpreadOuter1"></feMorphology>
            <feOffset dx="4" dy="8" in="shadowSpreadOuter1" result="shadowOffsetOuter1"></feOffset>
            <feGaussianBlur stdDeviation="10" in="shadowOffsetOuter1" result="shadowBlurOuter1"></feGaussianBlur>
            <feComposite in="shadowBlurOuter1" in2="SourceAlpha" operator="out" result="shadowBlurOuter1"></feComposite>
            <feColorMatrix values="0 0 0 0 0.268393806   0 0 0 0 0.341428607   0 0 0 0 0.473901721  0 0 0 0.15 0" type="matrix" in="shadowBlurOuter1"></feColorMatrix>
        </filter>
    </defs>
    <g id="Desktop_Final" stroke="none" stroke-width="1" fill="none" fill-rule="evenodd">
        <g id="01_Homepage_Jan2021" transform="translate(-1079.000000, -3858.000000)">
            <g id="Group-27-Copy" transform="translate(0.000000, 3584.000000)">
                <g id="Group-30" transform="translate(210.000000, 287.000000)">
                    <g id="Group-47-Copy-4" transform="translate(841.000000, 0.000000)">
                        <g id="Group-46" transform="translate(45.000000, 0.000000)">
                            <g id="Oval">
                                <use fill="black" fill-opacity="1" filter="url(#filter-2)" xlink:href="#path-1"></use>
                                <use stroke="#01446F" stroke-width="2" fill="#F7F8FA" fill-rule="evenodd" xlink:href="#path-1"></use>
                            </g>
                            <g id="008-confetti" transform="translate(22.000000, 20.000000)" fill="#01446F" fill-rule="nonzero">
                                <path d="M33.7203034,27.5247509 C35.5875487,26.6583464 37.4467018,26.0263164 39.2729987,25.6392077 C39.7997701,25.5275869 40.1364241,25.0093262 40.0249861,24.4816905 C39.913548,23.9540548 39.3967212,23.6167507 38.8692673,23.7284693 C36.7552595,24.1765153 34.6082979,24.9258302 32.4610439,25.9613751 C31.2615494,24.5284677 29.8884144,23.0302285 28.4069612,21.5463446 C26.8326917,19.9695899 25.2420429,18.5143193 23.7309509,17.2613921 C25.0385685,15.605243 26.1058583,13.7509497 26.913321,11.7215591 C28.1722881,8.55740516 28.8106925,4.94237316 28.8106925,0.976560593 C28.8106925,0.437206177 28.374105,0 27.8357315,0 C27.2973581,0 26.8607706,0.437206177 26.8607706,0.976560593 C26.8607706,7.08709553 25.2965432,12.1443122 22.2074768,16.0468437 C21.6245477,15.6014344 21.0593628,15.1920602 20.5196244,14.8275101 C17.6301326,12.8754631 15.9091315,12.4179445 14.947235,13.3468489 C14.9404103,13.3531966 14.933293,13.3594466 14.9266633,13.3659895 C14.9256883,13.3669661 14.9247134,13.367845 14.9237384,13.3687239 C14.9231535,13.3693098 14.922666,13.3699934 14.922081,13.3704817 C14.6757084,13.6178445 14.5236144,13.916965 14.4659943,14.2738979 L0.0758628283,48.6458034 C-0.0772060439,49.0114277 0.0056656385,49.4335949 0.285576933,49.7139654 C0.472184462,49.9007814 0.721579479,50 0.975264323,50 C1.10220424,50 1.23031411,49.9751954 1.35208674,49.9240236 C1.35481663,49.9228517 1.35208674,49.9240236 1.35481663,49.9228517 L35.6676905,35.5099892 C35.993035,35.457255 36.2694364,35.3240521 36.5031345,35.113408 C36.5200989,35.0992479 36.5359907,35.0842088 36.5518826,35.0691698 C36.5581223,35.0630175 36.5648496,35.0579393 36.5709918,35.0516894 C36.5719668,35.0507128 36.5727468,35.0496386 36.5736242,35.0487597 C36.5803515,35.0421191 36.5865912,35.0348925 36.5930259,35.0279589 C37.5203113,34.0643866 37.0635421,32.3406595 35.1146926,29.4466222 C34.7027716,28.8349046 34.2346929,28.1909606 33.7203034,27.5247509 Z M7.7329138,43.0428847 C7.52943944,44.313683 7.07696006,45.1490329 6.85925127,45.4927822 L2.79571145,47.1996148 L6.92262373,37.3424075 C7.73008641,39.369845 8.0099977,41.3120287 7.7329138,43.0428847 Z M13.7324336,39.7385943 C13.3393294,41.9831211 12.2967061,43.0650526 12.0002205,43.3334115 L9.43110081,44.4125109 C10.0022329,42.3759915 10.1523769,39.1432829 7.9451628,34.8999318 L10.8669258,27.9215275 C13.898372,33.6783522 14.1258304,37.4927979 13.7324336,39.7385943 Z M17.2102169,41.1448415 L15.108786,42.0276523 C15.309043,41.520915 15.4856084,40.9437677 15.6135233,40.2897651 C16.3938821,36.3002221 15.1199981,31.3674192 11.8292123,25.6230945 L12.8841201,23.1034705 C13.7190767,24.1098162 14.6704436,25.5341298 15.0557481,26.4321749 C15.2143743,26.8019984 15.5740374,27.0234824 15.9519323,27.0234824 C16.0803346,27.0234824 16.2109794,26.9977988 16.3364569,26.9438927 C16.8311521,26.7309048 17.0597804,26.1566872 16.8472389,25.6610827 C16.2755218,24.3286634 14.8258523,22.2554253 13.7169317,21.1143142 L15.3288347,17.2642241 C15.6111834,17.7827778 15.9609019,18.3509407 16.3803301,18.9737911 C16.6691136,19.4026965 16.9854884,19.8473245 17.3257498,20.3043549 C20.6607988,25.3732903 20.5853368,30.5616591 19.9333804,34.0234687 C19.2400856,37.7055904 17.7555126,40.4013859 17.2102169,41.1448415 Z M24.7225837,37.9894766 L20.0940539,39.9336134 C20.7623897,38.4652569 21.4441799,36.5376239 21.8493737,34.3855774 C22.3019506,31.9818711 22.5009401,28.8209398 21.6635461,25.4075676 C22.1253851,25.8962385 22.6004836,26.3859836 23.0878666,26.8741663 C24.5462132,28.3348079 26.0182093,29.6901764 27.4283928,30.8780647 C27.2885834,35.4887002 25.1773054,37.5896727 24.7225837,37.9894766 Z M28.0832741,36.5778582 C28.6051707,35.4963174 29.0660348,34.1024725 29.2715565,32.3615579 C29.860043,32.811557 30.4306876,33.2250328 30.9753008,33.5929031 C31.5974234,34.0132148 32.1645582,34.3633118 32.6824575,34.6461237 L28.0832741,36.5778582 Z M31.5124068,31.590368 C29.3928417,30.0861717 26.8906044,27.9207462 24.4667539,25.492919 C22.0430009,23.0651893 19.881025,20.5588466 18.3793901,18.4358038 C16.9271857,16.3827805 16.5358364,15.3344427 16.432783,14.880342 C16.8861399,14.9836621 17.9327605,15.3756536 19.9824209,16.8301429 C20.2864137,17.0458651 20.5987912,17.2764311 20.9170185,17.5181298 C20.8486737,17.5886375 20.7812064,17.6598288 20.7116917,17.7294576 C20.3309695,18.1108045 20.3309695,18.7291626 20.7116917,19.1106072 C20.9021016,19.3012318 21.1515941,19.3966418 21.4010866,19.3966418 C21.6505791,19.3966418 21.9001691,19.3012318 22.0904815,19.1106072 C22.2129366,18.9879512 22.3335393,18.863635 22.452777,18.738147 C23.9316953,19.9626563 25.4954352,21.392341 27.0281714,22.9275919 C28.3462211,24.2478042 29.585494,25.5907703 30.684665,26.883053 C30.508587,26.981002 30.3326066,27.0806112 30.1566261,27.1823688 C29.6903023,27.4520948 29.5305062,28.0493593 29.7997904,28.5163506 C29.9803532,28.8296312 30.3080376,29.0048262 30.6450816,29.0048262 C30.8104349,29.0048262 30.9781282,28.9625411 31.1315871,28.8737717 C31.4022362,28.7171314 31.6730804,28.5668387 31.9438271,28.4200617 C32.3674476,28.9589278 32.7605519,29.4828526 33.1155352,29.9848047 C34.567837,32.0378281 34.9590889,33.0861658 35.0621422,33.5402665 C34.6085904,33.4368488 33.5619698,33.0448573 31.5124068,31.590368 Z" id="Shape" stroke="#01446F" stroke-width="0.5"></path>
                                <path d="M17.5087969,28.3222742 C17.2991862,27.8573855 16.7519054,27.6500914 16.2861758,27.8593237 C15.8349626,28.062003 15.6259992,28.5812533 15.8040804,29.0361743 C15.9440675,29.4019384 16.294035,29.6296296 16.6676728,29.6296296 C16.7690108,29.6296296 16.8720131,29.612832 16.9731662,29.5775754 C17.4550766,29.4092297 17.7091614,28.8826881 17.5404188,28.4015554 C17.5316349,28.3765435 17.5197074,28.3464555 17.5087969,28.3222742 Z" id="Path"></path>
                                <path d="M36.3975583,15.2268082 C36.588572,15.4150446 36.8388558,15.5092593 37.0891395,15.5092593 C37.339521,15.5092593 37.5897069,15.4150446 37.7807206,15.2268082 C39.965984,13.0722151 43.5064374,12.0847455 46.0913332,11.8790548 C46.6297513,11.8362387 47.0309486,11.371048 46.987523,10.8402831 C46.9439997,10.3094217 46.4732629,9.91539818 45.9339645,9.95667133 C43.0024468,10.1899417 38.957905,11.3386466 36.3975583,13.8630587 C36.0156287,14.2396279 36.0156287,14.850239 36.3975583,15.2268082 Z" id="Path"></path>
                                <path d="M49.2538139,10.0016989 C49.22532,9.99472602 49.1963226,9.98784492 49.1670232,9.98114732 C48.6274509,9.85857204 48.0811326,10.1581291 47.9467178,10.6498065 C47.8124036,11.1414838 48.1409396,11.6394 48.680512,11.7617918 L48.7319622,11.7739025 C48.819357,11.7952798 48.9071545,11.8055556 48.9935425,11.8055556 C49.4379673,11.8055556 49.8447358,11.5353578 49.9653567,11.1256114 C50.1094373,10.6362278 49.7909698,10.1330819 49.2538139,10.0016989 Z" id="Path"></path>
                                <path d="M7.21450617,8.25617284 L8.17901235,8.25617284 L8.17901235,9.22067901 C8.17901235,9.75327932 8.61082176,10.1851852 9.14351852,10.1851852 C9.67621528,10.1851852 10.1080247,9.75327932 10.1080247,9.22067901 L10.1080247,8.25617284 L11.0725309,8.25617284 C11.6052276,8.25617284 12.037037,7.82426698 12.037037,7.29166667 C12.037037,6.75906636 11.6052276,6.32716049 11.0725309,6.32716049 L10.1080247,6.32716049 L10.1080247,5.36265432 C10.1080247,4.83005401 9.67621528,4.39814815 9.14351852,4.39814815 C8.61082176,4.39814815 8.17901235,4.83005401 8.17901235,5.36265432 L8.17901235,6.32716049 L7.21450617,6.32716049 C6.68180941,6.32716049 6.25,6.75906636 6.25,7.29166667 C6.25,7.82436343 6.68180941,8.25617284 7.21450617,8.25617284 Z" id="Path"></path>
                                <path d="M30.1311728,17.74701 L31.0957755,17.74701 L31.0957755,18.7114198 C31.0957755,19.2441165 31.5276813,19.6759259 32.0602816,19.6759259 C32.5929784,19.6759259 33.0247878,19.2441165 33.0247878,18.7114198 L33.0247878,17.74701 L33.9891975,17.74701 C34.5217978,17.74701 34.9537037,17.3151042 34.9537037,16.7825039 C34.9537037,16.2499035 34.5217978,15.8179977 33.9891975,15.8179977 L33.0247878,15.8179977 L33.0247878,14.8533951 C33.0247878,14.3207948 32.5929784,13.8888889 32.0602816,13.8888889 C31.5276813,13.8888889 31.0957755,14.3207948 31.0957755,14.8533951 L31.0957755,15.8179977 L30.1311728,15.8179977 C29.5985725,15.8179977 29.1666667,16.2499035 29.1666667,16.7825039 C29.1666667,17.3152006 29.5985725,17.74701 30.1311728,17.74701 Z" id="Path"></path>
                                <path d="M43.4799383,40.8179012 L42.5154321,40.8179012 L42.5154321,39.8533951 C42.5154321,39.3207948 42.0835262,38.8888889 41.5509259,38.8888889 C41.0183256,38.8888889 40.5864198,39.3207948 40.5864198,39.8533951 L40.5864198,40.8179012 L39.6219136,40.8179012 C39.0893133,40.8179012 38.6574074,41.2498071 38.6574074,41.7824074 C38.6574074,42.3150077 39.0893133,42.7469136 39.6219136,42.7469136 L40.5864198,42.7469136 L40.5864198,43.7114198 C40.5864198,44.2440201 41.0183256,44.6759259 41.5509259,44.6759259 C42.0835262,44.6759259 42.5154321,44.2440201 42.5154321,43.7114198 L42.5154321,42.7469136 L43.4799383,42.7469136 C44.0125386,42.7469136 44.4444444,42.3150077 44.4444444,41.7824074 C44.4444444,41.2498071 44.012635,40.8179012 43.4799383,40.8179012 Z" id="Path"></path>
                                <path d="M38.0787037,6.01851852 C39.6741898,6.01851852 40.9722222,4.72048611 40.9722222,3.125 C40.9722222,1.52951389 39.6741898,0.231481481 38.0787037,0.231481481 C36.4832176,0.231481481 35.1851852,1.52951389 35.1851852,3.125 C35.1851852,4.72048611 36.4832176,6.01851852 38.0787037,6.01851852 Z M38.0787037,2.16049383 C38.6105324,2.16049383 39.0432099,2.5931713 39.0432099,3.125 C39.0432099,3.6568287 38.6105324,4.08950617 38.0787037,4.08950617 C37.546875,4.08950617 37.1141975,3.6568287 37.1141975,3.125 C37.1141975,2.5931713 37.546875,2.16049383 38.0787037,2.16049383 Z" id="Shape"></path>
                                <path d="M44.0972222,17.1296296 C42.5017361,17.1296296 41.2037037,18.427662 41.2037037,20.0231481 C41.2037037,21.6186343 42.5017361,22.9166667 44.0972222,22.9166667 C45.6927083,22.9166667 46.9907407,21.6186343 46.9907407,20.0231481 C46.9907407,18.427662 45.6926119,17.1296296 44.0972222,17.1296296 Z M44.0972222,20.9876543 C43.5653935,20.9876543 43.132716,20.5549769 43.132716,20.0231481 C43.132716,19.4913194 43.5653935,19.058642 44.0972222,19.058642 C44.6290509,19.058642 45.0617284,19.4913194 45.0617284,20.0231481 C45.0617284,20.5549769 44.6290509,20.9876543 44.0972222,20.9876543 Z" id="Shape"></path>
                                <path d="M19.3287037,9.49074074 C20.9241898,9.49074074 22.2222222,8.19270833 22.2222222,6.59722222 C22.2222222,5.00173611 20.9241898,3.7037037 19.3287037,3.7037037 C17.7332176,3.7037037 16.4351852,5.00173611 16.4351852,6.59722222 C16.4351852,8.19270833 17.7332176,9.49074074 19.3287037,9.49074074 Z M19.3287037,5.63271605 C19.8605324,5.63271605 20.2932099,6.06539352 20.2932099,6.59722222 C20.2932099,7.12905093 19.8605324,7.5617284 19.3287037,7.5617284 C18.796875,7.5617284 18.3641975,7.12905093 18.3641975,6.59722222 C18.3641975,6.06548997 18.796875,5.63271605 19.3287037,5.63271605 Z" id="Shape"></path>
                                <path d="M43.75,28.7037037 C43.75,28.1937037 43.3340741,27.7777778 42.8240741,27.7777778 C42.3140741,27.7777778 41.8981481,28.1937037 41.8981481,28.7037037 C41.8981481,29.2137037 42.3140741,29.6296296 42.8240741,29.6296296 C43.3340741,29.6296296 43.75,29.2136111 43.75,28.7037037 Z" id="Path"></path>
                                <path d="M32.6388889,9.25925926 C33.1488889,9.25925926 33.5648148,8.84333333 33.5648148,8.33333333 C33.5648148,7.82333333 33.1488889,7.40740741 32.6388889,7.40740741 C32.1288889,7.40740741 31.712963,7.82333333 31.712963,8.33333333 C31.7130556,8.84324074 32.1289815,9.25925926 32.6388889,9.25925926 Z" id="Path"></path>
                                <path d="M45.8333796,35.1851852 C45.3234051,35.1851852 44.9074074,35.6011829 44.9074074,36.1111574 C44.9074074,36.6211319 45.3234051,37.037037 45.8333796,37.037037 C46.3432615,37.037037 46.7592593,36.6211319 46.7592593,36.1111574 C46.7592593,35.6011829 46.3432615,35.1851852 45.8333796,35.1851852 Z" id="Path"></path>
                                <path d="M13.6574074,3.00925926 C14.1674074,3.00925926 14.5833333,2.59333333 14.5833333,2.08333333 C14.5833333,1.57333333 14.1674074,1.15740741 13.6574074,1.15740741 C13.1474074,1.15740741 12.7314815,1.57333333 12.7314815,2.08333333 C12.7314815,2.59333333 13.1474074,3.00925926 13.6574074,3.00925926 Z" id="Path"></path>
                            </g>
                        </g>
                    </g>
                </g>
            </g>
        </g>
    </g>
</svg>