<?xml version="1.0" encoding="UTF-8"?>
<svg width="132px" height="132px" viewBox="0 0 132 132" version="1.1" xmlns="http://www.w3.org/2000/svg" xmlns:xlink="http://www.w3.org/1999/xlink">
    <title>Group 46</title>
    <defs>
        <circle id="path-1" cx="45" cy="45" r="45"></circle>
        <filter x="-34.4%" y="-30.0%" width="177.8%" height="177.8%" filterUnits="objectBoundingBox" id="filter-2">
            <feMorphology radius="1" operator="dilate" in="SourceAlpha" result="shadowSpreadOuter1"></feMorphology>
            <feOffset dx="4" dy="8" in="shadowSpreadOuter1" result="shadowOffsetOuter1"></feOffset>
            <feGaussianBlur stdDeviation="10" in="shadowOffsetOuter1" result="shadowBlurOuter1"></feGaussianBlur>
            <feComposite in="shadowBlurOuter1" in2="SourceAlpha" operator="out" result="shadowBlurOuter1"></feComposite>
            <feColorMatrix values="0 0 0 0 0.268393806   0 0 0 0 0.341428607   0 0 0 0 0.473901721  0 0 0 0.15 0" type="matrix" in="shadowBlurOuter1"></feColorMatrix>
        </filter>
    </defs>
    <g id="Desktop_Final" stroke="none" stroke-width="1" fill="none" fill-rule="evenodd">
        <g id="01_Homepage_Jan2021" transform="translate(-448.000000, -3858.000000)">
            <g id="Group-27-Copy" transform="translate(0.000000, 3584.000000)">
                <g id="Group-30" transform="translate(210.000000, 287.000000)">
                    <g id="Group-47" transform="translate(210.000000, 0.000000)">
                        <g id="Group-46" transform="translate(45.000000, 0.000000)">
                            <g id="Oval">
                                <use fill="black" fill-opacity="1" filter="url(#filter-2)" xlink:href="#path-1"></use>
                                <use stroke="#01446F" stroke-width="2" fill="#F7F8FA" fill-rule="evenodd" xlink:href="#path-1"></use>
                            </g>
                            <g id="003-defining" transform="translate(25.000000, 20.000000)" fill="#01446F" fill-rule="nonzero">
                                <path d="M13.9866644,7.41609652 L7.73380266,7.41609652 C6.87051693,7.41609652 6.17058723,8.09448993 6.17058723,8.93121302 L6.17058723,14.991679 C6.17058723,15.8284021 6.87051693,16.5067955 7.73380266,16.5067955 L13.9866644,16.5067955 C14.8499501,16.5067955 15.5498798,15.8284021 15.5498798,14.991679 L15.5498798,8.93121302 C15.5498798,8.09448993 14.8499501,7.41609652 13.9866644,7.41609652 Z M12.4234489,13.4765625 L9.29701809,13.4765625 L9.29701809,10.4463295 L12.4234489,10.4463295 L12.4234489,13.4765625 Z" id="Shape"></path>
                                <path d="M13.9866644,19.6167714 L7.73380266,19.6167714 C6.87051693,19.6167714 6.17058723,20.2951649 6.17058723,21.1318879 L6.17058723,27.1923539 C6.17058723,28.029077 6.87051693,28.7074704 7.73380266,28.7074704 L13.9866644,28.7074704 C14.8499501,28.7074704 15.5498798,28.029077 15.5498798,27.1923539 L15.5498798,21.1318879 C15.5498798,20.2951649 14.8499501,19.6167714 13.9866644,19.6167714 Z M12.4234489,25.6772374 L9.29701809,25.6772374 L9.29701809,22.6470044 L12.4234489,22.6470044 L12.4234489,25.6772374 Z" id="Shape"></path>
                                <path d="M13.9866644,31.5782175 L7.73380266,31.5782175 C6.87051693,31.5782175 6.17058723,32.2566109 6.17058723,33.0933339 L6.17058723,39.1537999 C6.17058723,39.990523 6.87051693,40.6689164 7.73380266,40.6689164 L13.9866644,40.6689164 C14.8499501,40.6689164 15.5498798,39.990523 15.5498798,39.1537999 L15.5498798,33.0933339 C15.5498798,32.2566109 14.8499501,31.5782175 13.9866644,31.5782175 Z M12.4234489,37.6386834 L9.29701809,37.6386834 L9.29701809,34.6084504 L12.4234489,34.6084504 L12.4234489,37.6386834 Z" id="Shape"></path>
                                <path d="M48.9887146,15.2841182 C48.9679786,15.2690396 48.9470488,15.2545263 48.9255376,15.2405786 L42.1427323,10.8112189 C41.4479792,10.3588587 40.5098203,10.5224623 40.0201018,11.1815887 L38.7588876,12.8837822 L38.7588876,1.50786713 C38.7588876,0.675147509 38.0647159,0 37.2085321,0 L1.5503555,0 C0.694171677,0 0,0.675147509 0,1.50786713 L0,48.2517483 C0,49.0844679 0.694171677,49.7596154 1.5503555,49.7596154 L37.2085321,49.7596154 C38.0647159,49.7596154 38.7588876,49.0844679 38.7588876,48.2517483 L38.7588876,31.1259588 L49.3032429,17.3949437 C49.8156354,16.727524 49.6747469,15.7824683 48.9887146,15.2841182 Z M35.6581766,46.7438811 L3.10071101,46.7438811 L3.10071101,3.01573427 L35.6581766,3.01573427 L35.6581766,17.068679 L26.6134026,29.2759943 L26.613015,29.2767483 L26.4552663,29.489546 C26.3106957,29.6848148 26.2159302,29.9106179 26.1789154,30.1484839 L24.8223544,38.9813811 C24.6958066,39.805242 25.2800968,40.5727464 26.1271723,40.695826 C26.4969321,40.7495438 26.8742499,40.6715117 27.1895534,40.4760544 L35.3289198,35.4290346 C35.4519793,35.3510025 35.5628297,35.2561954 35.6581766,35.1474405 L35.6581766,46.7438811 Z M28.9412614,32.5782233 L31.5840361,34.1744892 L28.3924355,36.1535648 L28.9412614,32.5782233 Z M34.1047204,32.1467849 L30.1001521,29.728166 L41.6588275,14.1281496 L45.8428495,16.8604048 L34.1047204,32.1467849 Z" id="Shape"></path>
                                <rect id="Rectangle" x="18.7585852" y="10.5260725" width="12.3411745" height="3.10997596"></rect>
                                <rect id="Rectangle" x="18.7585852" y="22.4875185" width="7.65152816" height="3.10997596"></rect>
                                <rect id="Rectangle" x="18.5117617" y="34.6881934" width="3.20870536" height="3.10997596"></rect>
                            </g>
                        </g>
                    </g>
                </g>
            </g>
        </g>
    </g>
</svg>