<?xml version="1.0" encoding="UTF-8"?>
<svg width="132px" height="132px" viewBox="0 0 132 132" version="1.1" xmlns="http://www.w3.org/2000/svg" xmlns:xlink="http://www.w3.org/1999/xlink">
    <title>Group 46</title>
    <defs>
        <circle id="path-1" cx="45" cy="45" r="45"></circle>
        <filter x="-34.4%" y="-30.0%" width="177.8%" height="177.8%" filterUnits="objectBoundingBox" id="filter-2">
            <feMorphology radius="1" operator="dilate" in="SourceAlpha" result="shadowSpreadOuter1"></feMorphology>
            <feOffset dx="4" dy="8" in="shadowSpreadOuter1" result="shadowOffsetOuter1"></feOffset>
            <feGaussianBlur stdDeviation="10" in="shadowOffsetOuter1" result="shadowBlurOuter1"></feGaussianBlur>
            <feComposite in="shadowBlurOuter1" in2="SourceAlpha" operator="out" result="shadowBlurOuter1"></feComposite>
            <feColorMatrix values="0 0 0 0 0.268393806   0 0 0 0 0.341428607   0 0 0 0 0.473901721  0 0 0 0.15 0" type="matrix" in="shadowBlurOuter1"></feColorMatrix>
        </filter>
    </defs>
    <g id="Desktop_Final" stroke="none" stroke-width="1" fill="none" fill-rule="evenodd">
        <g id="01_Homepage_Jan2021" transform="translate(-659.000000, -3858.000000)">
            <g id="Group-27-Copy" transform="translate(0.000000, 3584.000000)">
                <g id="Group-30" transform="translate(210.000000, 287.000000)">
                    <g id="Group-47-Copy-2" transform="translate(421.000000, 0.000000)">
                        <g id="Group-46" transform="translate(45.000000, 0.000000)">
                            <g id="Oval">
                                <use fill="black" fill-opacity="1" filter="url(#filter-2)" xlink:href="#path-1"></use>
                                <use stroke="#01446F" stroke-width="2" fill="#F7F8FA" fill-rule="evenodd" xlink:href="#path-1"></use>
                            </g>
                            <g id="Group-29" transform="translate(19.500000, 20.000000)" fill="#01446F" fill-rule="nonzero">
                                <path d="M44.037433,27.7701978 L43.58521,29.499703 C41.0147263,39.3307485 31.6351981,45.5343193 22.3568348,43.0755562 C13.4450307,40.7140913 7.90642037,31.494187 9.23820617,22.100853 L11.9234793,22.9011901 C12.5458876,23.0867275 13.1230981,22.4832517 12.962295,21.8148814 L10.0420585,9.67393821 C9.88133699,9.00565498 9.10334695,8.77377673 8.64157853,9.25652251 L0.252649657,18.0266075 C-0.209118759,18.5093533 -0.0082576566,19.3448815 0.614313861,19.530419 L3.53716109,20.4015739 C1.3559172,33.1079272 8.69779027,45.7629746 20.6786411,49.094025 C33.1193838,52.5530353 45.8086331,44.3312004 49.2653694,31.11083 L49.6976858,29.4573691 C49.822347,28.9805466 49.5614397,28.4862156 49.114846,28.3530293 L45.0717616,27.147907 L44.037433,27.7701978 Z" id="Shape" stroke="#F7F8FA" stroke-width="2"></path>
                                <g id="004-24-hours-delivery" transform="translate(13.500000, 0.000000)">
                                    <path d="M3.44595428,31.0561882 C3.44595428,26.0536457 9.52179868,25.2533957 9.52179868,22.4975114 C9.52179868,21.28664 8.64403076,20.5626956 7.54573988,20.5626956 C6.02720709,20.5626956 5.20304021,22.2047455 5.20304021,22.2047455 L3.44595428,20.9541534 C3.44595428,20.9541534 4.63521191,18.1791927 7.74692732,18.1791927 C10.0344758,18.1791927 11.9748006,19.6636665 11.9748006,22.2827061 C11.9748006,26.7379566 6.1552948,27.5000538 6.10014366,30.1190063 L12.1759881,30.1190063 L12.1759881,32.2877039 L3.55625656,32.2877039 C3.50110542,31.8391039 3.44595428,31.4476461 3.44595428,31.0561882 Z M13.4993707,27.1675673 L19.099822,18.4130744 L21.8999661,18.4130744 L21.8999661,26.6201882 L23.5840339,26.6201882 L23.5840339,28.7125802 L21.8999661,28.7125802 L21.8999661,32.2878781 L19.575215,32.2878781 L19.575215,28.7125802 L13.4993707,28.7125802 L13.4993707,27.1675673 L13.4993707,27.1675673 Z M19.5751335,26.6201882 L19.5751335,22.322601 C19.5751335,21.6384643 19.6674871,20.87628 19.6674871,20.87628 L19.630203,20.87628 C19.630203,20.87628 19.3381304,21.6177329 18.9894382,22.1459484 L15.988025,26.5820355 L15.988025,26.6201882 L19.5751335,26.6201882 L19.5751335,26.6201882 Z M34.8149413,20.3195217 L30.5749935,20.9076667 C30.1151831,20.9714289 29.7909662,21.4210741 29.8506045,21.9120079 L30.0176896,23.284985 C30.0774094,23.7759188 30.4986303,24.1221683 30.9583591,24.058319 L35.198307,23.470174 C35.6581173,23.4064118 35.9823342,22.9567666 35.922696,22.4658328 L35.7555293,21.0928557 C35.695891,20.602009 35.2747517,20.2557596 34.8149413,20.3195217 Z M31.5509076,11.7652874 L27.826166,14.0064577 C27.422241,14.2494857 27.2793049,14.7960807 27.5069258,15.2274335 L28.1435298,16.4336011 C28.3711507,16.8648668 28.8830936,17.0174779 29.2871001,16.7744499 L33.0118417,14.5332796 C33.4157666,14.2902516 33.5587027,13.7436566 33.3310819,13.3123038 L32.6944779,12.1061362 C32.466857,11.6748705 31.9548325,11.5222594 31.5509076,11.7652874 Z M25.5233612,5.13942293 L22.8560367,8.70714249 C22.566738,9.0939837 22.6261315,9.65808722 22.9884484,9.96679365 L24.001973,10.8305445 C24.3642898,11.1394251 24.8925496,11.0760985 25.1817668,10.6891702 L27.8490913,7.12145064 C28.13839,6.73452231 28.0789965,6.1705059 27.7166796,5.86171236 L26.703155,4.99796152 C26.3408381,4.68925509 25.8125783,4.75249461 25.5233612,5.13942293 Z M17.6099069,1.40681024 L16.3885866,5.78157413 C16.2560933,6.25595766 16.5090053,6.75525373 16.9532331,6.89662803 L18.1960102,7.29209282 C18.6402379,7.43355424 19.1078804,7.16352321 19.2403737,6.68922679 L20.461694,2.31446291 C20.5941057,1.84007937 20.3412753,1.34087041 19.896966,1.199409 L18.6542705,0.80394421 C18.2099611,0.662482797 17.7423186,0.932426712 17.6099069,1.40681024 Z M8.96308938,1.11108272 L9.36554584,5.65579193 C9.40919356,6.1486421 9.81882947,6.51039657 10.2803531,6.46379444 L11.5713467,6.33339559 C12.0329519,6.28679346 12.3717725,5.84951742 12.3281247,5.35666725 L11.9255867,0.811958034 C11.881939,0.319107864 11.4723031,-0.0425594919 11.0107794,0.00404263614 L9.71978586,0.134354381 C9.25826219,0.180956509 8.91944166,0.618232552 8.96308938,1.11108272 Z M0.84216567,4.29535822 L2.80990285,8.34808833 C3.02324638,8.78754205 3.52996788,8.9591424 3.94164339,8.73127106 L5.09288264,8.09417207 C5.50447657,7.86630073 5.66519809,7.32536761 5.45177297,6.88582679 L3.48403579,2.83309668 C3.27069225,2.39364297 2.76397076,2.22204261 2.35229524,2.44991395 L1.201056,3.08710006 C0.789462066,3.31479718 0.628822134,3.8558174 0.84216567,4.29535822 Z" id="Shape"></path>
                                </g>
                            </g>
                        </g>
                    </g>
                </g>
            </g>
        </g>
    </g>
</svg>