<?xml version="1.0" encoding="UTF-8"?>
<svg width="132px" height="132px" viewBox="0 0 132 132" version="1.1" xmlns="http://www.w3.org/2000/svg" xmlns:xlink="http://www.w3.org/1999/xlink">
    <title>Group 46</title>
    <defs>
        <circle id="path-1" cx="45" cy="45" r="45"></circle>
        <filter x="-34.4%" y="-30.0%" width="177.8%" height="177.8%" filterUnits="objectBoundingBox" id="filter-2">
            <feMorphology radius="1" operator="dilate" in="SourceAlpha" result="shadowSpreadOuter1"></feMorphology>
            <feOffset dx="4" dy="8" in="shadowSpreadOuter1" result="shadowOffsetOuter1"></feOffset>
            <feGaussianBlur stdDeviation="10" in="shadowOffsetOuter1" result="shadowBlurOuter1"></feGaussianBlur>
            <feComposite in="shadowBlurOuter1" in2="SourceAlpha" operator="out" result="shadowBlurOuter1"></feComposite>
            <feColorMatrix values="0 0 0 0 0.268393806   0 0 0 0 0.341428607   0 0 0 0 0.473901721  0 0 0 0.15 0" type="matrix" in="shadowBlurOuter1"></feColorMatrix>
        </filter>
    </defs>
    <g id="Desktop_Final" stroke="none" stroke-width="1" fill="none" fill-rule="evenodd">
        <g id="01_Homepage_Jan2021" transform="translate(-869.000000, -3858.000000)">
            <g id="Group-27-Copy" transform="translate(0.000000, 3584.000000)">
                <g id="Group-30" transform="translate(210.000000, 287.000000)">
                    <g id="Group-47-Copy-3" transform="translate(631.000000, 0.000000)">
                        <g id="Group-46" transform="translate(45.000000, 0.000000)">
                            <g id="Oval">
                                <use fill="black" fill-opacity="1" filter="url(#filter-2)" xlink:href="#path-1"></use>
                                <use stroke="#01446F" stroke-width="2" fill="#F7F8FA" fill-rule="evenodd" xlink:href="#path-1"></use>
                            </g>
                            <g id="015-thumb-up" transform="translate(20.000000, 19.000000)" fill="#01446F" fill-rule="nonzero" stroke="#01446F">
                                <path d="M48.5645021,27.3708532 C51.097338,24.5200719 50.314731,18.7536443 45.9275549,18.7536443 L34.384102,18.7623902 C34.822465,15.998703 35.4574468,11.4173375 35.4323054,10.9847825 C35.1899164,6.88808267 32.8801299,1.90222182 32.7802089,1.69815209 C32.3589291,0.811177578 30.2319013,-0.3913762 28.0913359,0.123899873 C25.3238468,0.793685886 25.0411671,2.78956075 25.0524485,3.3398202 C25.0524485,3.3398202 25.171709,8.79977876 25.1833127,10.2566909 C23.8601654,13.5422136 19.2979664,22.1765497 17.9151889,22.8419628 C17.5844826,22.615664 17.2092954,22.493951 16.8189589,22.493951 L2.23500692,22.493951 C0.996308968,22.493951 0,23.626538 0,25.0204072 L0.00193395465,47.8080724 C0.0886395879,49.0364993 1.01178061,50 2.1022087,50 L15.2015282,50 C16.3631903,50 17.3076048,48.932278 17.3076048,47.6189435 L17.3076048,46.8624279 C17.3076048,46.8624279 17.7943167,46.8212495 18.0154322,46.9819544 C18.8576694,47.586511 19.8984593,48.3473996 21.2560955,48.3473996 L40.8041867,48.3473996 C48.1126014,48.3473996 47.3280604,41.0132792 46.6605237,40.0129731 C47.8953538,38.493018 48.6589435,35.8120519 47.616542,33.6940996 C48.4165546,32.7353363 49.8244735,30.0999214 48.5645021,27.3708532 Z M14.7515614,47.6145706 L2.09834079,47.6145706 L2.09834079,24.8724566 L14.7515614,24.8724566 L14.7515614,47.6145706 Z M45.1546177,27.1751649 L45.0353572,27.7381787 C48.4030169,28.8208415 46.6105632,33.2090696 44.1947316,33.493674 L44.075471,34.0566878 C47.3045306,34.9852051 45.7641358,39.5035276 43.2348454,39.812183 L43.1155849,40.3730104 C45.752532,40.8624133 45.1140047,45.9503091 41.119099,45.9503091 L21.2361113,45.9590549 C19.8320602,45.9590549 18.5530716,44.1501225 17.5203398,44.1501225 L16.6191169,44.1501225 L16.6191169,26.6445836 C17.7424222,25.8574575 19.1232659,24.8356512 19.8907235,24.0984493 C21.3408672,22.7002072 27.276174,11.8568162 27.276174,10.4997525 C27.276174,9.14268879 27.1453097,3.2720399 27.1453097,3.2720399 C27.1453097,3.2720399 28.3089058,1.57607466 30.9071738,2.81324741 C30.9071738,2.81324741 33.0938319,7.44891002 33.3168813,11.143301 C33.3168813,11.143301 32.3321761,18.7536443 31.8032395,21.1412602 L45.5875012,21.1412602 C48.9741781,21.1456331 48.327915,26.6121511 45.1546177,27.1751649 Z" id="Shape"></path>
                            </g>
                        </g>
                    </g>
                </g>
            </g>
        </g>
    </g>
</svg>